<svg width="64" height="263" viewBox="0 0 64 263" fill="none" xmlns="http://www.w3.org/2000/svg">
<path d="M57.7895 17.5373C56.1362 16.9386 54.2962 16.6599 52.5748 16.3372C51.6095 16.1559 50.6415 16.0052 49.6722 15.8492C49.1988 15.7732 48.0562 15.7266 47.6722 15.3826C47.6615 15.3279 47.6455 15.2559 47.6148 15.1493C47.5028 14.7466 47.6148 13.9932 47.6228 13.5786C47.6428 12.5093 47.6868 11.4399 47.7535 10.3706C47.8775 8.37192 48.7602 5.49191 47.7148 3.63458C46.6308 1.70658 44.3468 1.45192 42.3815 1.09192C39.9962 0.653252 37.5975 0.307915 35.1922 0.010582C34.8188 -0.0347519 34.4188 0.0692482 34.0442 0.259914C33.7255 0.207916 33.4068 0.154583 33.0882 0.10125C32.0855 -0.062748 30.9175 0.350582 30.6722 1.47325C30.1175 4.00792 29.6468 6.52925 29.2282 9.09058C29.0202 10.3679 28.8122 11.6466 28.6028 12.9253C28.4922 13.6092 28.4828 14.5946 28.2882 15.3946C28.1668 15.3879 28.0455 15.3853 27.9268 15.3759C27.4562 15.3519 26.9855 15.3239 26.5162 15.2972C25.4842 15.2399 24.4495 15.1812 23.4162 15.1239C21.5215 15.0186 19.5415 14.7466 17.6495 14.8812C13.3908 15.1839 13.0815 20.8212 12.8202 24.0906C12.5642 27.2852 12.3002 31.9466 16.0948 33.1199C17.9068 33.6799 19.9788 33.7786 21.8548 34.0066C22.9188 34.1359 23.9842 34.2426 25.0508 34.3346C24.7908 37.6559 24.5255 40.9786 24.2908 44.3026C24.1615 46.1266 24.7135 47.7666 26.4282 48.6306C28.2068 49.5279 30.4455 49.8946 32.3882 50.2186C34.2828 50.5372 36.2002 50.7492 38.1215 50.7999C40.1468 50.8532 42.6255 51.0292 44.2442 49.5812C45.4188 48.5306 45.8828 47.0546 46.2988 45.5879C46.9215 43.3932 47.5322 41.1972 48.1522 39.0026C48.2668 38.5946 48.3615 38.0412 48.5828 37.6466C48.8202 37.6359 49.0588 37.6266 49.2988 37.6332C49.6615 37.6319 50.0255 37.6412 50.3882 37.6439C52.4495 37.6546 54.8415 37.8812 56.8695 37.4359C58.7162 37.0306 59.4882 35.5279 59.7188 33.7892C60.0122 31.5812 60.2935 29.3719 60.5802 27.1639C61.0508 23.5332 62.1788 19.1279 57.7895 17.5373Z" fill="#E92D2D"/>
<path d="M62.0669 84.1095C61.5869 82.9588 61.0842 81.8162 60.5202 80.7042C59.9495 79.5828 59.3895 78.2108 58.2522 77.5442C56.1709 76.3268 52.9589 77.8682 51.0135 78.7628C48.9335 79.7202 47.0229 80.9855 45.1255 82.2535C43.7002 83.2068 42.2349 84.0815 40.7562 84.9255C39.1509 85.6642 37.5402 86.3895 35.9215 87.0895C33.5522 88.1135 31.1522 89.0682 28.7495 90.0068C26.6255 90.8362 23.7882 91.3828 22.2575 93.1935C20.4709 95.3082 21.4069 98.4055 22.1202 100.778C22.8242 103.119 23.7455 105.698 25.1509 107.719C26.9135 110.25 29.4469 109.879 32.0629 109.125C34.4242 108.445 36.7562 107.67 39.0509 106.798C43.6949 105.035 48.2095 102.925 52.5189 100.452C54.6482 99.2295 56.7269 97.9188 58.7495 96.5268C60.6695 95.2028 63.3775 93.8055 63.8722 91.3242C64.3469 88.9455 62.9615 86.2495 62.0669 84.1095Z" fill="#2B79BE"/>
<path d="M48.8037 204.372C47.5557 202.994 45.8384 201.787 44.1424 200.778C43.113 199.804 42.0597 198.858 40.9784 197.903C38.981 196.138 36.6744 194.303 34.2877 196.651C33.3357 197.587 32.7024 198.908 32.0144 200.06C31.1677 201.479 30.321 202.9 29.4744 204.319L24.7317 212.268C18.2984 223.055 11.929 233.883 5.62371 244.755C4.85171 246.086 3.81971 247.514 3.76638 249.14C3.71038 250.854 4.52904 252.206 5.79304 253.194C7.99304 254.915 10.4784 256.264 12.9917 257.394C15.4904 258.514 18.857 260.328 21.5157 258.807C23.757 257.526 25.1584 254.295 26.5264 252.13C32.933 241.983 38.9584 231.567 44.585 220.916C45.9664 218.3 47.3237 215.671 48.657 213.026C50.0984 210.167 51.229 207.055 48.8037 204.372Z" fill="#1B4F8D"/>
<path d="M7.42339 204.738C7.40872 204.414 7.40206 203.81 7.40472 203.744L7.41672 203.548C7.65006 202.74 7.94472 202.182 8.45539 201.782C8.97406 201.377 9.27539 201.288 9.91406 201.158C9.58206 201.225 10.4594 201.096 10.3954 201.1C10.5474 201.09 11.2701 201.122 11.1434 201.101C12.0674 201.254 12.9074 201.784 13.4554 202.59C13.8221 203.13 14.4341 203.322 15.0061 203.265C15.0341 203.688 15.0314 204.121 15.0207 204.518C15.0141 204.818 14.9861 205.114 14.9714 205.413C14.9687 205.462 14.9701 205.48 14.9687 205.516C14.9581 205.553 14.9514 205.572 14.9394 205.626C14.8687 205.913 14.8207 206.278 14.7394 206.626C14.7287 206.644 14.7247 206.649 14.7114 206.67C14.5487 206.936 14.4007 207.208 14.2301 207.468C14.1727 207.521 13.9034 207.844 13.8754 207.873C13.7794 207.969 13.6754 208.057 13.5727 208.148C13.5354 208.172 13.4807 208.209 13.3887 208.273C13.1847 208.381 12.9887 208.497 12.7847 208.605C12.8127 208.572 12.1501 208.838 12.0514 208.866C11.7794 208.942 11.5034 208.997 11.2274 209.056C11.1861 209.062 11.1674 209.066 11.1354 209.072C10.9634 209.089 10.7901 209.1 10.6181 209.108C10.6127 209.105 10.6127 209.105 10.6074 209.101C10.3941 208.989 10.1781 208.882 9.97139 208.757C9.93006 208.732 9.80739 208.669 9.68606 208.6C9.57272 208.506 9.46206 208.412 9.35539 208.313C9.17672 208.15 9.00606 207.981 8.84206 207.805C8.78872 207.745 8.73406 207.685 8.68072 207.625C8.43406 207.328 8.46872 207.384 8.78739 207.793C8.41139 207.541 8.09806 206.753 7.89806 206.357C7.86339 206.284 7.82872 206.21 7.79272 206.14C7.77139 206.09 7.76072 206.068 7.74606 206.034C7.69672 205.868 7.65272 205.685 7.64072 205.644C7.57139 205.413 7.51272 205.178 7.46339 204.942C7.45006 204.874 7.43672 204.806 7.42339 204.738ZM21.6501 196.429C19.4754 193.374 15.7274 191.562 11.9527 191.888C6.21939 192.382 1.35539 196.714 0.428723 202.221C0.0340568 203.754 -0.099277 205.353 0.0753897 206.868C0.306056 208.864 0.878057 210.653 2.11672 212.256C3.17006 213.618 4.55806 214.601 6.13539 215.266C7.00739 215.636 7.89406 215.884 8.78072 216.03C11.0807 216.761 13.5581 216.724 15.9394 215.66C17.8647 214.798 19.3421 213.35 20.4021 211.601C21.5527 210.277 22.4554 208.718 23.0114 206.998C24.1127 203.594 23.7567 199.388 21.6501 196.429Z" fill="#1B4F8D"/>
<path d="M51.0095 253.432C50.9509 253.555 50.8869 253.674 50.8175 253.791C50.8162 253.792 50.8149 253.798 50.8135 253.799C50.7655 253.874 50.7082 253.959 50.6642 254.004C50.6229 254.047 50.5402 254.107 50.4682 254.16C50.4589 254.164 50.4482 254.17 50.4429 254.172C50.4269 254.179 50.4229 254.182 50.4069 254.187C50.2602 254.227 50.0602 254.271 50.0162 254.283C49.9682 254.296 49.9442 254.303 49.9095 254.314C49.7309 254.314 49.5215 254.287 49.4389 254.286C49.2442 254.282 49.0482 254.254 48.8562 254.252C48.3869 254.251 49.1415 254.29 49.1215 254.299C48.9482 254.396 48.2069 254.128 48.0175 254.083C47.6869 254.004 47.3575 253.912 47.0335 253.806C46.9882 253.792 46.8909 253.748 46.7935 253.71C46.9389 253.784 47.0335 253.863 46.7255 253.71C46.6869 253.69 46.6482 253.667 46.6095 253.647C46.5855 253.64 46.5575 253.632 46.5469 253.635C46.5589 253.632 46.5775 253.635 46.5935 253.638C46.3389 253.504 46.0909 253.358 45.8349 253.223C45.7922 253.199 45.7709 253.188 45.7402 253.174C45.6735 253.108 45.6149 253.048 45.6122 253.046C45.5709 253.006 45.4909 252.906 45.4175 252.822C45.3922 252.78 45.3695 252.738 45.3442 252.695C45.3295 252.646 45.3149 252.596 45.3015 252.548C45.2949 252.507 45.2922 252.484 45.2869 252.452C45.2802 252.276 45.2735 252.102 45.2735 251.924C45.2762 251.551 45.3002 251.178 45.3295 250.804C45.3335 250.766 45.3415 250.666 45.3509 250.57C45.3669 250.451 45.3882 250.286 45.3975 250.232C45.4842 249.766 45.6135 249.323 45.7429 248.868C45.7589 248.807 45.8015 248.714 45.8322 248.646C45.8082 248.695 45.7735 248.764 45.7135 248.88L45.8349 248.642C45.8709 248.564 45.8895 248.53 45.8442 248.624C45.8669 248.578 45.8882 248.532 45.9122 248.488C45.9922 248.34 46.0789 248.195 46.1695 248.055C46.2562 247.922 46.6002 247.578 46.2575 247.911C46.3909 247.782 46.5882 247.591 46.6389 247.542C46.6482 247.534 46.7122 247.466 46.7855 247.395C46.8509 247.347 46.9189 247.302 46.9855 247.259C47.2482 247.09 47.5202 246.958 47.7909 246.808C47.8789 246.779 47.9682 246.747 48.0562 246.72C48.1309 246.696 48.4269 246.595 48.6775 246.528H48.8215C49.0322 246.527 49.2415 246.512 49.4509 246.516C49.5562 246.519 49.6242 246.519 49.6749 246.516C49.7015 246.522 49.7322 246.527 49.7682 246.534C49.9389 247.128 50.2975 247.654 50.8215 248.019C50.8269 248.028 50.8322 248.038 50.8389 248.046C50.8722 248.204 50.9082 248.359 50.9362 248.52C50.9642 248.668 50.9815 248.818 51.0122 248.964C51.0135 248.971 51.0135 248.971 51.0149 248.979C51.0669 249.442 51.1269 249.902 51.1669 250.364C51.2042 250.807 51.2309 251.252 51.2335 251.696C51.2349 251.863 51.2322 252.028 51.2255 252.195C51.2242 252.238 51.2175 252.371 51.2135 252.488C51.2015 252.587 51.1869 252.712 51.1762 252.759C51.1469 252.895 51.1149 253.028 51.0775 253.162C51.0709 253.184 51.0429 253.31 51.0095 253.432ZM57.0415 257.939C58.9362 255.52 60.0575 252.39 59.8589 249.567C59.5882 245.735 57.2389 242.052 53.8055 240.338C52.2922 238.846 50.2055 237.904 47.9975 237.823C43.6242 237.666 39.5095 240.666 37.4189 244.351C34.8762 248.831 34.9215 254.403 38.1589 258.488C39.6202 260.332 41.7962 261.58 44.1109 261.964C46.5669 262.374 49.5002 262.415 51.9015 261.682C52.7562 261.422 53.5695 261.015 54.3309 260.502C55.3935 259.896 56.3149 259.042 57.0415 257.939Z" fill="#1B4F8D"/>
</svg>
