<svg width="209" height="264" viewBox="0 0 209 264" fill="none" xmlns="http://www.w3.org/2000/svg">
<path d="M201.342 102.521C201.794 102.146 209.599 95.7711 207.977 100.408C202.456 116.163 168.219 156.863 162.795 163.267C156.487 142.663 144.908 132.86 138.495 128.818C139.992 127.915 141.519 126.292 143.074 125.092C145.782 125.323 149.036 124.67 152.166 121.743C153.51 120.484 154.557 118.871 155.267 117.085H155.277C166.981 108.636 176.87 94.6766 176.87 94.6766C176.87 94.6766 177.935 85.3445 180.96 84.5572C183.264 83.9619 184.185 88.5224 184.185 88.5224C184.185 88.5224 193.21 76.1564 195.447 78.692C197.608 81.1393 192.855 89.9731 192.567 90.5098C192.999 89.9145 200.795 79.1135 203.032 81.8881C205.336 84.7396 198.885 94.5902 198.885 94.5902C198.885 94.5902 206.076 86.5926 207.746 89.5795C209.359 92.4876 201.774 101.983 201.342 102.521Z" fill="#E98165"/>
<g opacity="0.130005">
<g opacity="0.130005">
<path opacity="0.130005" d="M155.277 117.085H155.267C154.557 118.871 153.51 120.484 152.166 121.743C149.036 124.67 145.782 125.323 143.074 125.092C141.519 126.292 139.992 127.915 138.495 128.818C140.436 130.041 142.852 131.797 145.45 134.216C149.91 128.981 154.049 123.526 156.171 116.425C155.874 116.647 155.577 116.869 155.277 117.085Z" fill="#53004E"/>
</g>
</g>
<path d="M138.495 128.818C144.908 132.86 156.487 142.663 162.795 163.266C163.275 164.849 163.726 166.491 164.148 168.201C164.148 168.201 140.165 192.559 137.295 195.14L143.497 278.554C46.7001 313.549 -31.7972 259.227 -33.2661 254.59C-34.7255 249.943 4.43676 157.169 4.43676 157.169C4.43676 157.169 -12.5281 130.431 -10.9151 125.544C-10.5887 124.546 -9.6094 122.99 -8.06365 121.109C-1.99586 113.716 12.7704 101.34 30.9258 98.6999L30.9354 98.4311C31.9147 98.4781 32.942 98.4397 34.0269 98.3149C34.0269 98.3149 38.2897 128.108 63.3673 139.83C63.3673 139.83 63.2521 150.545 71.9602 152.715C82.0412 155.23 89.0786 144.871 89.0786 144.871C112.111 144.879 127.53 133.771 133.915 126.398C133.915 126.398 135.72 127.071 138.495 128.818Z" fill="#FFE062"/>
<g opacity="0.130005">
<g opacity="0.130005">
<path opacity="0.130005" d="M133.934 126.406C133.931 126.405 133.915 126.398 133.915 126.398C127.53 133.771 112.111 144.88 89.0787 144.87C89.0787 144.87 88.084 146.334 86.3079 148.028C87.05 148.056 87.7912 148.077 88.5314 148.077C105.548 148.077 125.299 141.238 133.934 126.406Z" fill="#53004E"/>
</g>
</g>
<g opacity="0.130005">
<g opacity="0.130005">
<path opacity="0.130005" d="M63.6815 142.801C63.3551 141.075 63.3676 139.83 63.3676 139.83C38.2899 128.107 34.0271 98.3154 34.0271 98.3154C33.6104 98.3634 33.2091 98.3864 32.8088 98.4095C32.0695 119.238 45.938 135.058 63.6815 142.801Z" fill="#53004E"/>
</g>
</g>
<path d="M28.5736 26.644C30.4554 24.5424 35.8607 28.2378 35.2655 29.1499C34.0174 31.0413 26.6918 28.738 28.5736 26.644Z" fill="#602003"/>
<path d="M33.1723 20.3369C35.4766 17.4086 39.1633 25.0222 37.6656 26.8838C36.8303 27.9207 30.8585 23.2556 33.1723 20.3369Z" fill="#602003"/>
<path d="M167.355 32.6446C163.38 28.6794 158.714 28.8532 155.047 30.4566C154.653 27.1529 152.522 23.7157 147.692 22.2574C142.422 20.654 138.303 21.5661 135.586 23.0638C136.133 20.174 135.163 16.3038 129.902 12.618C125.188 9.3153 119.562 8.75844 114.905 9.68877C114.771 7.60537 113.801 5.53157 111.535 3.87061C102.28 -2.91726 92.6791 0.818466 89.2516 3.11213C85.8336 5.40675 83.011 9.07527 78.6809 8.53762C71.701 7.67258 69.5408 -0.536224 57.5493 2.04642C45.3945 4.65884 36.2928 21.0956 43.4839 31.7517C43.4839 31.7517 37.9922 30.4748 35.2559 36.437C32.5196 42.3896 32.6444 70.3485 32.6444 70.3485C37.1665 71.9125 40.3924 75.8594 40.3924 75.8594C40.3924 75.8594 57.2804 55.5525 53.7857 37.9357C53.7857 37.9357 62.2441 42.1025 75.8967 39.2021C79.305 38.482 82.0028 37.2924 84.0863 35.9003C85.2672 40.2207 89.3188 44.7332 98.9485 46.8646C110.114 49.332 116.739 48.2365 120.138 46.278C120.81 51.8369 125.62 59.7778 141.625 62.5333C142.066 62.6101 142.527 62.686 142.988 62.7532C147.74 63.455 151.821 63.1478 155.277 62.1301C170.696 57.5792 173.605 38.8756 167.355 32.6446Z" fill="#602003"/>
<path d="M155.277 62.1301C155.277 62.1301 152.694 88.5701 146.934 101.051C145.292 101.051 143.43 101.359 141.317 102.06C146.492 77.6548 141.625 62.5333 141.625 62.5333C142.066 62.6101 142.527 62.686 142.988 62.7532C147.74 63.455 151.821 63.1478 155.277 62.1301Z" fill="#602003"/>
<path d="M-13.6415 41.4392C-13.7567 40.7576 -15.3696 30.9454 -12.5374 29.3334C-9.60907 27.6619 -5.07743 42.2745 -5.07743 42.2745C-5.07743 42.2745 -2.7252 38.2613 -0.737803 39.5776C1.87365 41.2962 -0.132944 50.4641 -0.132944 50.4641C-0.132944 50.4641 9.76562 75.0809 17.8496 88.3792C19.3666 93.6981 23.6678 98.152 30.9357 98.4304L30.9261 98.7002C12.7707 101.34 -1.99553 113.715 -8.06332 121.108L-8.61057 120.964C-8.61057 120.964 -31.288 63.963 -31.4224 45.8182C-31.4608 40.9016 -26.0939 49.552 -25.8251 49.9754C-26.0267 49.4186 -30.1839 37.8878 -27.6972 35.6595C-25.1626 33.3648 -20.9478 43.2634 -20.9478 43.2634C-20.9478 43.2634 -23.8569 31.8584 -20.7558 29.9085C-17.7411 28.0085 -13.8623 40.7 -13.6415 41.4392Z" fill="#E98165"/>
<g opacity="0.130005">
<g opacity="0.130005">
<path opacity="0.130005" d="M30.9351 98.4307C23.6672 98.1523 19.366 93.6975 17.849 88.3785C17.3795 87.6066 16.9043 86.7925 16.4243 85.9514C16.4041 91.3625 18.0679 97.004 21.2929 101.053C24.3681 100.001 27.5892 99.1844 30.9255 98.6995L30.9351 98.4307Z" fill="#53004E"/>
</g>
</g>
<path d="M146.934 101.051C145.292 101.051 143.43 101.358 141.318 102.06C146.492 77.6547 141.625 62.5333 141.625 62.5333C125.62 59.7778 120.81 51.8368 120.138 46.2779C116.739 48.2365 110.114 49.332 98.9486 46.8645C89.3188 44.7331 85.2672 40.2207 84.0863 35.9003C82.0029 37.2924 79.305 38.4819 75.8967 39.202C62.2442 42.1025 53.7858 37.9357 53.7858 37.9357C57.2805 55.5524 40.3924 75.8594 40.3924 75.8594C40.3924 75.8594 37.1665 71.9124 32.6445 70.3484C29.2554 69.1771 25.1366 69.349 21.1042 73.5455C17.523 77.2793 16.3805 83.2319 17.8494 88.379C19.3664 93.6979 23.6676 98.1518 30.9355 98.4312C31.9148 98.4782 32.9421 98.4398 34.027 98.315C34.027 98.315 38.2898 128.108 63.3675 139.83C63.3675 139.83 63.2523 150.545 71.9603 152.715C82.0413 155.23 89.0788 144.871 89.0788 144.871C112.111 144.88 127.531 133.771 133.915 126.398C135.106 125.026 135.979 123.778 136.536 122.759C136.536 122.759 139.292 124.786 143.074 125.092C145.782 125.322 149.037 124.671 152.167 121.742C153.511 120.484 154.557 118.872 155.268 117.085C158.033 110.249 155.853 101.042 146.934 101.051Z" fill="#E98165"/>
<g opacity="0.130005">
<g opacity="0.130005">
<path opacity="0.130005" d="M88.6069 145.504C88.9151 145.111 89.0783 144.871 89.0783 144.871C84.7099 144.871 80.064 144.468 75.1569 143.564C70.7885 142.767 66.8713 141.472 63.367 139.83C63.367 139.83 63.3631 140.309 63.4361 141.079C70.0636 148.088 79.7414 148.596 88.6069 145.504Z" fill="#53004E"/>
</g>
</g>
<path d="M73.3406 77.455C72.6224 75.1863 70.2011 73.9277 67.9324 74.6458C65.6627 75.363 64.405 77.7853 65.1222 80.054C65.8403 82.3237 68.2617 83.5814 70.5313 82.8642C72.801 82.1461 74.0587 79.7237 73.3406 77.455Z" fill="black"/>
<path d="M116.904 87.445C116.186 85.1763 113.765 83.9176 111.496 84.6357C109.226 85.3529 107.968 87.7752 108.686 90.0439C109.404 92.3136 111.825 93.5713 114.095 92.8541C116.364 92.136 117.622 89.7137 116.904 87.445Z" fill="black"/>
<path d="M79.2368 64.939C79.594 62.4044 74.8511 60.6042 70.1802 61.7352C65.5094 62.8662 63.5911 65.2501 64.5791 67.2788C65.567 69.3065 69.0665 67.7502 71.2949 67.4506C74.7877 66.9821 78.7769 68.2043 79.2368 64.939Z" fill="#602003"/>
<path d="M109.288 69.9954C110.149 67.5856 115.186 68.1952 118.796 71.3664C122.408 74.5357 123.487 77.5101 121.669 78.8475C119.852 80.1839 116.744 78.1447 114.909 76.8447C112.035 74.8064 108.177 73.1013 109.288 69.9954Z" fill="#602003"/>
<g opacity="0.240005">
<g opacity="0.240005">
<path opacity="0.240005" d="M89.886 82.412C84.834 81.8869 81.8116 85.0657 81.587 88.2456C81.3633 91.4264 84.4221 95.0574 88.2971 95.4405C92.172 95.8245 95.6418 93.9936 96.4751 90.2723C97.0867 87.5418 95.2712 82.9718 89.886 82.412Z" fill="#D01936"/>
</g>
</g>
<path d="M84.2819 93.8038C85.7067 93.2854 82.982 88.5598 82.0056 89.2242C81.0311 89.8905 82.8572 94.3223 84.2819 93.8038Z" fill="#380403"/>
<path d="M90.638 94.7845C91.574 94.4427 92.5101 93.9348 93.2148 93.3434C93.933 92.7424 94.4812 92.0271 94.8499 91.1755C95.0544 90.7751 95.1984 90.2682 95.3117 89.8631C95.4154 89.48 95.425 89.0326 95.4096 88.5564C95.3482 87.6107 95.1149 86.5344 94.822 85.5186L94.8048 85.4591C94.7126 85.1375 94.8979 84.8024 95.2186 84.7102C95.4519 84.643 95.6928 84.7227 95.8426 84.8936C96.6731 85.8451 97.2876 86.9156 97.5948 88.2107C97.7551 88.854 97.8003 89.5568 97.7052 90.2903C97.5823 90.9931 97.4037 91.5807 97.133 92.2114C96.5905 93.4394 95.6381 94.5406 94.4582 95.1916C93.2868 95.8752 92.0003 96.1248 90.6812 95.9808C90.3518 95.9453 90.1137 95.6486 90.1493 95.3193C90.1752 95.084 90.3326 94.8968 90.5391 94.82L90.638 94.7845Z" fill="#8B2C1A"/>
<g opacity="0.300003">
<g opacity="0.300003">
<path opacity="0.300003" d="M62.7727 91.9979C60.6432 85.2658 53.4597 81.5348 46.7276 83.6643C39.9963 85.7938 36.2654 92.9772 38.394 99.7085C40.5234 106.441 47.7078 110.172 54.439 108.042C61.1712 105.913 64.9021 98.7301 62.7727 91.9979Z" fill="#D01936"/>
</g>
</g>
<g opacity="0.300003">
<g opacity="0.300003">
<path opacity="0.300003" d="M131.601 110.874C129.471 104.141 122.288 100.411 115.557 102.54C108.824 104.669 105.094 111.853 107.223 118.584C109.352 125.316 116.536 129.047 123.267 126.918C129.999 124.788 133.73 117.606 131.601 110.874Z" fill="#D01936"/>
</g>
</g>
<path d="M23.1885 80.8631C23.8106 79.9818 24.6507 79.3635 25.6396 78.9535C26.618 78.5292 27.7413 78.4159 28.8089 78.5589C29.8746 78.7097 30.9288 79.1609 31.7487 79.8646C32.5744 80.5722 33.1716 81.4536 33.4346 82.5155C33.4951 82.7612 33.3453 83.0099 33.0996 83.0714C32.9219 83.1155 32.7434 83.0493 32.6339 82.9177L32.5859 82.8573C32.0646 82.2226 31.4204 81.6255 30.7454 81.2261C30.0589 80.8267 29.3264 80.553 28.5391 80.457C27.7586 80.3495 26.9684 80.3802 26.1782 80.5694C25.3958 80.7489 24.5816 81.0945 23.8471 81.4987L23.7866 81.5314C23.5639 81.6543 23.2836 81.5727 23.1607 81.3509C23.0733 81.1915 23.0896 81.0024 23.1885 80.8631Z" fill="#8B2C1A"/>
<path d="M142.2 108.394C142.717 107.69 143.352 107.154 144.096 106.712C144.834 106.276 145.685 105.957 146.633 105.886C147.578 105.827 148.61 106.098 149.37 106.687C150.172 107.246 150.602 108.081 150.881 108.874C150.965 109.116 150.838 109.379 150.597 109.463C150.436 109.521 150.265 109.483 150.143 109.38L150.087 109.332C149.512 108.84 149.033 108.346 148.466 108.117C147.92 107.866 147.369 107.755 146.758 107.799C146.145 107.836 145.495 108.021 144.832 108.251C144.173 108.486 143.484 108.79 142.803 109.082L142.762 109.099C142.525 109.202 142.249 109.093 142.148 108.853C142.08 108.696 142.106 108.522 142.2 108.394Z" fill="#8B2C1A"/>
<path d="M83.3471 111.603C91.6711 112.544 94.4458 118.525 94.4458 118.525C90.9703 119.956 86.3906 120.418 80.7645 119.141C76.9433 118.276 73.9958 116.826 71.7876 115.088C71.7876 115.088 76.4441 110.817 83.3471 111.603Z" fill="#E5577C"/>
<path d="M101.349 103.539C101.349 103.539 100.514 107.964 97.5661 107.715C94.6091 107.456 94.2922 102.847 94.2922 102.847L94.2346 102.262C97.4029 101.935 99.8992 101.771 101.349 103.539Z" fill="white"/>
<path d="M94.2343 102.262L94.2919 102.847C94.2919 102.847 92.6502 108.579 89.117 107.984C85.6799 107.398 85.5455 102.731 85.5359 102.482C88.7426 102.896 91.6997 102.53 94.2343 102.262Z" fill="white"/>
<path d="M84.499 102.319C84.8447 102.386 85.1807 102.434 85.5263 102.482C85.4399 102.78 83.635 108.1 79.7082 106.447C76.8663 105.247 77.596 99.5059 77.596 99.5059C79.7466 100.62 82.0412 101.868 84.499 102.319Z" fill="white"/>
<path d="M77.5957 99.5061C77.5957 99.5061 75.9156 104.537 73.1409 104.038C69.1469 103.326 70.4526 97.5763 70.4526 97.5763C72.6704 97.0195 75.0323 98.1812 77.5957 99.5061Z" fill="white"/>
<path d="M102.002 104.614C103.951 109.059 101.349 115.703 94.4457 118.525C94.4457 118.525 91.671 112.545 83.347 111.603C76.4439 110.816 71.7874 115.088 71.7874 115.088C65.3548 110.029 65.0956 102.512 67.3422 99.7465C68.3503 98.508 69.3872 97.835 70.4529 97.5767C70.4529 97.5767 69.1472 103.327 73.1412 104.037C75.9158 104.537 77.596 99.5065 77.596 99.5065C77.596 99.5065 76.8663 105.247 79.7082 106.447C83.635 108.099 85.44 102.78 85.5264 102.482C85.536 102.473 85.536 102.482 85.536 102.482C85.5456 102.731 85.68 107.398 89.1171 107.984C92.6503 108.579 94.292 102.847 94.292 102.847C94.292 102.847 94.6089 107.456 97.566 107.714C100.513 107.964 101.349 103.539 101.349 103.539C101.598 103.836 101.819 104.192 102.002 104.614Z" fill="black"/>
<path d="M196.693 101.365C196.138 100.608 195.563 99.8332 194.98 99.1093C194.386 98.3854 193.775 97.6922 193.12 97.0508C192.482 96.3893 191.773 95.8162 191.04 95.267C190.312 94.6996 189.502 94.2752 188.674 93.7712L188.635 93.7472C188.417 93.6147 188.348 93.3295 188.482 93.1116C188.58 92.9503 188.76 92.8706 188.936 92.8936C189.962 93.0252 191.005 93.3113 191.926 93.8259C192.863 94.3107 193.723 94.9473 194.467 95.6856C195.209 96.4258 195.864 97.2477 196.384 98.1444C196.909 99.043 197.323 99.9801 197.544 101.029C197.597 101.28 197.436 101.526 197.186 101.579C197.002 101.617 196.821 101.541 196.717 101.399L196.693 101.365Z" fill="#8B2C1A"/>
<path d="M156.418 29.9379C153.936 31.113 151.694 32.7413 150.143 34.8334C149.782 35.3585 149.46 35.9231 149.349 36.4636C149.254 37.0339 149.388 37.2931 149.854 37.4554C150.339 37.608 150.981 37.5956 151.494 37.3987C152.028 37.2058 152.509 36.8429 152.907 36.3878C154.491 34.4877 154.804 31.5883 154.106 29.1698C153.417 26.6966 151.562 24.6756 149.217 23.5974C148.056 23.0511 146.764 22.6997 145.463 22.4482C144.165 22.1995 142.846 22.0958 141.537 22.1592C138.934 22.284 136.336 23.1433 134.348 24.7649C133.857 25.1691 133.411 25.6251 133.06 26.1119C132.892 26.3538 132.735 26.6092 132.654 26.8387C132.615 26.951 132.594 27.0528 132.592 27.1085C132.592 27.1622 132.613 27.0979 132.515 27.0172C132.354 26.9059 132.307 26.9404 132.354 26.9347C132.417 26.9136 132.513 26.8713 132.618 26.807C132.832 26.6774 133.051 26.4729 133.255 26.2626C133.662 25.8229 134.009 25.2977 134.282 24.7389C134.829 23.6185 135.072 22.3541 134.983 21.1127C134.886 19.8674 134.46 18.652 133.791 17.5594C132.467 15.3655 130.309 13.6163 128.044 12.3096C125.751 11.0038 123.149 10.2665 120.51 10.0687C117.87 9.86901 115.177 10.1878 112.673 11.0307C111.424 11.4551 110.222 12.0129 109.142 12.7262C108.09 13.454 107.101 14.3363 106.595 15.403C106.343 15.9301 106.217 16.486 106.262 17.0294C106.295 17.5642 106.545 18.1373 106.86 18.5089C107.447 19.2923 108.697 19.0571 109.743 18.387C110.795 17.7245 111.708 16.7596 112.442 15.6929C113.191 14.6311 113.734 13.4242 114.059 12.179C114.376 10.9299 114.402 9.62323 114.106 8.39527C113.785 7.17307 113.107 6.05744 112.191 5.15207C111.278 4.25822 110.123 3.50455 108.978 2.82768C107.823 2.14217 106.644 1.52003 105.433 0.787483C106.853 0.846046 108.214 1.30593 109.464 1.94631C110.707 2.61454 111.879 3.36726 112.955 4.36863C114.008 5.37001 114.834 6.6623 115.233 8.09572C115.611 9.53202 115.596 11.0499 115.263 12.467C114.92 13.8822 114.338 15.2292 113.526 16.4274C112.723 17.6294 111.722 18.7134 110.455 19.5304C109.822 19.9337 109.094 20.263 108.249 20.3552C107.412 20.4771 106.393 20.1151 105.827 19.4248C105.26 18.7528 104.953 17.9933 104.872 17.16C104.793 16.3324 104.984 15.5067 105.319 14.7972C106.002 13.3638 107.155 12.3595 108.342 11.5357C109.554 10.735 110.863 10.1302 112.213 9.67219C114.915 8.76202 117.785 8.42407 120.619 8.63625C123.45 8.84843 126.262 9.64147 128.748 11.0557C129.995 11.7614 131.151 12.5861 132.223 13.527C133.292 14.4727 134.269 15.5576 135.025 16.8163C135.79 18.0644 136.305 19.5045 136.42 21.0042C136.528 22.5019 136.236 24.0246 135.578 25.3716C135.248 26.0456 134.834 26.6793 134.309 27.2486C134.035 27.529 133.752 27.8016 133.379 28.034C133.19 28.1482 132.977 28.2567 132.711 28.3326C132.431 28.3854 132.001 28.4622 131.569 28.107C131.217 27.7892 131.143 27.3686 131.149 27.0816C131.16 26.7935 131.223 26.5602 131.297 26.3481C131.449 25.9285 131.661 25.5973 131.882 25.2766C132.335 24.6487 132.862 24.1206 133.429 23.6512C135.715 21.7895 138.6 20.8573 141.464 20.7162C142.9 20.6441 144.336 20.7594 145.735 21.0263C147.125 21.3047 148.503 21.6887 149.827 22.3195C152.463 23.5446 154.644 25.941 155.405 28.8049C155.794 30.2268 155.864 31.7188 155.63 33.1695C155.367 34.6068 154.845 36.045 153.811 37.1933C153.298 37.7597 152.646 38.2465 151.88 38.5086C151.102 38.7659 150.295 38.7966 149.476 38.5288C149.069 38.3934 148.61 38.0814 148.386 37.6032C148.16 37.1299 148.183 36.6393 148.27 36.2399C148.462 35.4334 148.858 34.793 149.298 34.2093C151.105 31.9435 153.693 30.4525 156.418 29.9379Z" fill="#410900"/>
<path d="M53.7891 37.9318C56.9737 38.7959 60.1775 39.2059 63.3919 39.4027C66.6063 39.5899 69.8418 39.4276 73.0236 38.9025C76.2178 38.3869 79.3189 37.5785 82.0792 36.0529C83.4473 35.2935 84.7425 34.3987 85.8303 33.309C86.9277 32.2375 87.8398 30.9692 88.3592 29.6116C88.6155 28.9396 88.7614 28.2291 88.7038 27.6281C88.675 27.3314 88.6011 27.0664 88.4888 26.8936C88.3726 26.7237 88.2507 26.6353 88.0596 26.5787C87.8234 26.5249 87.6996 26.5182 87.4836 26.596C87.2675 26.6978 87.0131 26.8427 86.7827 27.0789C86.3113 27.5254 85.9061 28.1417 85.5903 28.7965C84.3124 31.4733 84.3815 34.7856 85.7074 37.4652C87.0448 40.1765 89.5468 42.2215 92.3484 43.606C95.1835 44.9943 98.275 45.8123 101.472 46.3912C104.649 46.9817 107.865 47.3647 111.055 47.3177C112.648 47.2937 114.233 47.1535 115.761 46.8348C117.286 46.5218 118.77 46.0216 120.009 45.2314C120.625 44.8378 121.17 44.3625 121.555 43.8268C121.95 43.2978 122.156 42.6929 122.097 42.2023C122.074 41.9556 121.988 41.7443 121.845 41.5744C121.784 41.4938 121.643 41.3834 121.71 41.4362C121.715 41.4122 121.767 41.4726 121.817 41.4563C121.87 41.4256 121.882 41.4736 121.909 41.44C121.922 41.417 121.703 41.632 121.573 41.8893C121.435 42.1706 121.318 42.4923 121.23 42.835C120.889 44.2271 120.95 45.794 121.275 47.2687C121.614 48.7502 122.207 50.1826 123.024 51.4874C124.671 54.0969 127.115 56.2034 129.886 57.727C132.646 59.2881 135.703 60.3519 138.829 61.1152C141.969 61.8593 145.173 62.419 148.37 62.3979C149.969 62.3902 151.563 62.2423 153.133 61.9639C154.712 61.7076 156.26 61.3773 157.948 61.1498C156.633 62.2414 155.035 62.8952 153.398 63.2792C151.753 63.6537 150.068 63.8073 148.39 63.8591C145.018 63.9427 141.7 63.4261 138.454 62.7224C135.203 61.9966 131.977 60.9529 129.011 59.2977C126.039 57.6934 123.316 55.4238 121.432 52.4916C119.579 49.5653 118.566 45.964 119.376 42.3636C119.492 41.9124 119.651 41.4592 119.876 41.0041C120.147 40.5606 120.401 40.0469 121.168 39.6753C121.393 39.6091 121.594 39.5102 121.853 39.5429C122.104 39.5601 122.374 39.5995 122.544 39.7147C122.986 39.9471 123.127 40.1448 123.333 40.3705C123.717 40.8323 123.943 41.4179 123.999 41.9863C124.121 43.1432 123.678 44.1657 123.109 44.9472C122.534 45.7422 121.809 46.3509 121.047 46.8405C119.512 47.816 117.831 48.3613 116.152 48.7127C114.469 49.0631 112.772 49.2081 111.087 49.235C107.715 49.2849 104.387 48.8836 101.12 48.2778C97.8737 47.6912 94.5546 46.8319 91.492 45.3284C88.4542 43.8258 85.572 41.5341 83.9792 38.3139C82.4066 35.1111 82.301 31.2256 83.8525 27.9603C84.25 27.1452 84.7444 26.3579 85.4626 25.6724C85.8111 25.3267 86.2585 25.0205 86.7904 24.7958C87.3405 24.5673 88.074 24.5548 88.6213 24.7324C89.2194 24.8995 89.7897 25.3402 90.1113 25.8663C90.4378 26.3915 90.5587 26.9464 90.6058 27.462C90.6845 28.5018 90.4493 29.4302 90.1238 30.2827C89.4508 31.986 88.3697 33.4203 87.1197 34.6272C85.8754 35.8475 84.4353 36.8219 82.9327 37.6371C79.9084 39.2567 76.5404 40.0325 73.2674 40.4981C69.9666 40.9676 66.6102 41.0972 63.2844 40.7996C59.9797 40.4636 56.6329 39.6792 53.7891 37.9318Z" fill="#410900"/>
<g opacity="0.160004">
<g opacity="0.160004">
<path opacity="0.160004" d="M39.1063 42.2466C38.7175 42.14 38.2816 42.3176 38.0771 42.6661C37.7507 43.222 37.5174 43.824 37.2601 44.4145C36.9682 45.0865 36.6994 45.7624 36.4411 46.4489C36.2107 47.0624 35.9803 47.6759 35.7489 48.2894C35.4311 49.1362 35.1248 49.9878 35.7786 50.7722C36.0215 51.0641 36.4574 51.1188 36.8031 51.043C37.719 50.8413 37.9878 49.816 38.2221 49.044C38.4189 48.3969 38.6148 47.7489 38.8106 47.1027C39.2043 45.8037 39.6056 44.473 39.7755 43.1251C39.8245 42.7362 39.4577 42.3435 39.1063 42.2466Z" fill="#FFFBD1"/>
</g>
</g>
<g opacity="0.160004">
<g opacity="0.160004">
<path opacity="0.160004" d="M43.1472 46.6589C43.1164 46.1798 43.0732 45.7084 42.9129 45.2543C42.7766 44.8693 42.4281 44.5323 41.9903 44.5524C41.563 44.5707 41.1934 44.8366 41.0686 45.2543C40.961 45.6162 40.9073 45.9753 40.8324 46.3459C40.7594 46.7174 40.6701 47.0871 40.5847 47.4558C40.4983 47.8292 40.3946 48.1989 40.2736 48.5608C40.0691 49.1734 39.8637 49.8512 40.2227 50.4503C40.3677 50.6942 40.5847 50.8737 40.8439 50.9831C41.0868 51.0849 41.4363 51.154 41.6907 51.0484C42.0565 50.8977 42.334 50.7556 42.5471 50.4042C42.6518 50.2343 42.7122 50.0374 42.7785 49.8493C42.8438 49.6659 42.8975 49.4854 42.934 49.2953C43.0243 48.8143 43.0905 48.3285 43.1366 47.8417C43.175 47.4452 43.1731 47.0564 43.1472 46.6589Z" fill="#FFFBD1"/>
</g>
</g>
<g opacity="0.160004">
<g opacity="0.160004">
<path opacity="0.160004" d="M47.7236 44.838C47.6699 44.332 47.379 43.9154 46.8451 43.8434C46.391 43.7819 45.8178 44.0709 45.7343 44.5692C45.6162 45.2835 45.4386 45.9863 45.2005 46.6708C45.0757 47.0289 44.9326 47.3832 44.8433 47.7519C44.7531 48.1244 44.6984 48.4566 44.8136 48.832C44.9614 49.3178 45.3541 49.698 45.8582 49.7662C46.2998 49.8247 46.7395 49.699 47.0573 49.3706C47.3165 49.1037 47.4404 48.7658 47.5594 48.4211C47.7044 47.9986 47.7409 47.4975 47.7707 47.0568C47.8196 46.3166 47.8014 45.5754 47.7236 44.838Z" fill="#FFFBD1"/>
</g>
</g>
<g opacity="0.160004">
<g opacity="0.160004">
<path opacity="0.160004" d="M75.3041 29.5375C75.1083 28.8242 74.2807 28.2913 73.5462 28.539C71.7834 29.1352 69.9583 29.1045 68.2887 28.1396C66.7583 27.2554 65.7646 25.724 65.0609 24.0755C64.9543 23.8259 64.6029 23.6473 64.3427 23.6627C64.2822 23.6646 64.2217 23.6713 64.1613 23.6809L64.1219 23.6925C63.7782 23.7894 63.5007 24.1293 63.5113 24.4941C63.663 29.6902 69.6828 32.8575 74.3056 31.2945C75.0372 31.0477 75.5173 30.3123 75.3041 29.5375Z" fill="#FFFBD1"/>
</g>
</g>
<g opacity="0.160004">
<g opacity="0.160004">
<path opacity="0.160004" d="M76.438 24.6292C76.3439 24.4074 76.1634 24.1367 75.932 24.0388C75.2935 23.7651 74.6013 23.6787 73.9504 23.4397C73.8054 23.3724 73.6614 23.3062 73.5241 23.2246C73.4242 23.166 73.3273 23.1027 73.2332 23.0364C73.2245 23.0307 73.2111 23.0201 73.1967 23.0095C73.1833 22.999 73.1689 22.9874 73.1631 22.9817C72.9999 22.8454 72.8463 22.6956 72.7061 22.5362C72.6773 22.5045 72.6504 22.4709 72.6226 22.4392C72.5573 22.3471 72.4949 22.2539 72.4363 22.1589C72.179 21.7422 71.6653 21.5684 71.2141 21.7585C70.7984 21.9333 70.4748 22.4546 70.6467 22.9135C70.9894 23.8266 71.5434 24.6551 72.3134 25.2658C72.7829 25.6383 73.2524 25.9426 73.8179 26.15C74.3815 26.3574 75.0487 26.4784 75.6373 26.2979C76.1115 26.1529 76.4562 25.764 76.5225 25.2696C76.5532 25.044 76.5263 24.8404 76.438 24.6292Z" fill="#FFFBD1"/>
</g>
</g>
<g opacity="0.160004">
<g opacity="0.160004">
<path opacity="0.160004" d="M103.048 37.2426C103.17 37.5211 102.953 37.0208 102.971 37.0621C102.874 36.8519 102.75 36.657 102.589 36.4851C102.52 36.4112 102.161 36.1203 102.229 36.176C102.363 36.2825 102.076 36.0492 102.052 36.0271C101.692 35.7218 101.348 35.3887 101.029 35.0421C100.882 34.8827 100.741 34.7176 100.608 34.5467C100.584 34.5131 100.534 34.4459 100.507 34.4075C100.439 34.3105 100.371 34.2126 100.307 34.1118C100.046 33.7133 99.8251 33.2947 99.6196 32.8646C99.6023 32.83 99.585 32.7916 99.5754 32.7696C99.5274 32.6553 99.4804 32.5391 99.4333 32.423C99.345 32.2021 99.2634 31.9784 99.1904 31.7509C99.0531 31.3236 98.9466 30.8858 98.8707 30.4432C98.8362 30.233 98.841 30.2167 98.815 29.9402C98.792 29.7021 98.7603 29.4659 98.744 29.2287C98.7085 28.7372 98.719 28.2456 98.767 27.754C98.8131 27.2874 98.3686 26.8659 97.9375 26.815C97.4344 26.7546 97.0677 27.0445 96.8881 27.5006C96.0663 29.5859 96.1162 31.9832 96.9707 34.0599C97.4373 35.1928 98.0383 36.2028 98.8246 37.1457C99.6167 38.0971 100.707 39.1302 102.018 39.037C102.982 38.9689 103.422 38.0914 103.048 37.2426Z" fill="#FFFBD1"/>
</g>
</g>
<g opacity="0.160004">
<g opacity="0.160004">
<path opacity="0.160004" d="M108.043 35.0384C107.88 34.5842 107.666 34.2002 107.343 33.8411C107.131 33.6049 106.927 33.3649 106.727 33.1182C106.719 33.1076 106.722 33.1114 106.715 33.1038C106.711 33.098 106.717 33.1038 106.709 33.0932C106.665 33.0318 106.62 32.9732 106.575 32.9127C106.485 32.7917 106.393 32.6717 106.299 32.5536C106.101 32.2829 105.904 32.0121 105.722 31.7299C105.378 31.198 105.08 30.643 104.804 30.0727C104.496 29.4352 104.303 29.0483 104.089 28.4502C103.925 27.9922 103.517 27.6725 103.015 27.7484C102.581 27.8146 102.109 28.2198 102.166 28.7094C102.253 29.4429 102.358 30.187 102.562 30.8984C102.77 31.6243 103.085 32.3357 103.415 33.0145C103.708 33.6184 104.038 34.2021 104.444 34.7388C104.708 35.0873 104.978 35.431 105.266 35.7603C105.607 36.1501 106.029 36.394 106.512 36.5697C107.376 36.8837 108.353 35.8996 108.043 35.0384Z" fill="#FFFBD1"/>
</g>
</g>
<g opacity="0.160004">
<g opacity="0.160004">
<g opacity="0.160004">
<g opacity="0.149994">
<g opacity="0.149994">
<path opacity="0.149994" d="M111.091 31.0122C110.987 30.8135 110.99 30.873 111.042 30.9508C111.052 30.9614 111.059 30.9738 111.069 30.9863C111.076 30.995 111.083 31.0026 111.091 31.0122Z" fill="#FFFBD1"/>
</g>
</g>
</g>
</g>
<g opacity="0.160004">
<g opacity="0.160004">
<g opacity="0.149994">
<g opacity="0.149994">
<path opacity="0.149994" d="M113.148 33.4809C113.057 32.8367 112.513 32.4296 112.056 32.0302C111.701 31.7182 111.389 31.3783 111.091 31.0125C111.096 31.0212 111.098 31.0221 111.103 31.0337C111.094 31.0173 111.08 31.002 111.068 30.9857C111.065 30.9809 111.061 30.978 111.057 30.9732C111.051 30.9655 111.047 30.9578 111.042 30.9501C111.026 30.93 111.011 30.9079 110.998 30.8887C110.929 30.7908 110.863 30.6919 110.799 30.5911C110.674 30.3904 110.559 30.184 110.456 29.9718C110.434 29.9248 110.413 29.8767 110.391 29.8297C110.352 29.7251 110.31 29.6204 110.275 29.5148C110.195 29.2786 110.132 29.0386 110.081 28.7957C109.978 28.3022 109.439 28.0074 108.97 28.0698C108.488 28.1351 108.077 28.5585 108.092 29.0645C108.127 30.2675 108.455 31.4369 109.028 32.494C109.314 33.0201 109.709 33.5309 110.136 33.9504C110.714 34.5207 111.557 35.0958 112.402 34.7953C112.654 34.7051 112.908 34.5524 113.04 34.3037C113.184 34.032 113.19 33.7814 113.148 33.4809Z" fill="#FFFBD1"/>
</g>
</g>
</g>
</g>
</g>
<g opacity="0.160004">
<g opacity="0.160004">
<path opacity="0.160004" d="M146.998 53.4592C146.206 52.2888 144.422 52.2024 143.176 51.7512C142.096 51.3585 140.963 50.7584 139.937 50.0681C137.888 48.6866 136.241 46.7789 134.634 44.8337C134.035 44.1079 132.88 44.8913 133.111 45.7189C133.896 48.5435 136.031 50.8929 138.373 52.5663C139.559 53.4131 140.847 54.0765 142.199 54.6171C142.834 54.8715 143.496 55.1154 144.165 55.2594C145.122 55.4668 146.017 55.5071 146.814 54.8773C147.195 54.5777 147.262 53.85 146.998 53.4592Z" fill="#FFFBD1"/>
</g>
</g>
<g opacity="0.160004">
<g opacity="0.160004">
<path opacity="0.160004" d="M151.696 47.2402C151.449 47.15 151.236 47.1 150.972 47.0684C150.892 47.0597 150.817 47.052 150.819 47.054C150.686 47.0338 150.553 47.0088 150.419 46.9973C150.049 46.9676 149.68 46.9656 149.31 46.9253C149.129 46.9042 148.948 46.8888 148.767 46.8706C148.753 46.8677 148.743 46.8658 148.72 46.861C148.64 46.8466 148.558 46.8331 148.478 46.8178C148.094 46.7419 147.715 46.6411 147.344 46.5163C147.179 46.4616 147.018 46.4001 146.857 46.3368C146.844 46.331 146.836 46.3262 146.818 46.3185C146.725 46.2744 146.632 46.2312 146.539 46.1851C146.208 46.0199 145.894 45.826 145.574 45.6388C145.415 45.5457 145.259 45.4487 145.108 45.345C145.039 45.2999 144.974 45.2528 144.907 45.2058C144.879 45.1866 144.864 45.177 144.846 45.1645C144.839 45.1578 144.834 45.153 144.82 45.1415C144.469 44.863 144.146 44.5712 143.776 44.3167C143.385 44.0479 142.788 44.165 142.467 44.4857C142.101 44.8515 142.104 45.3479 142.298 45.7943C142.635 46.572 143.342 47.2546 143.99 47.7913C144.766 48.4346 145.656 48.8858 146.588 49.2583C147.43 49.5934 148.343 49.8181 149.248 49.8824C149.7 49.915 150.161 49.8834 150.608 49.8229C151.215 49.7413 151.714 49.4811 152.187 49.1009C152.9 48.5306 152.396 47.4956 151.696 47.2402Z" fill="#FFFBD1"/>
</g>
</g>
<g opacity="0.160004">
<g opacity="0.160004">
<g opacity="0.160004">
<g opacity="0.149994">
<g opacity="0.149994">
<path opacity="0.149994" d="M159.83 41.4506C159.571 41.1251 159.163 40.983 158.754 41.0838C158.408 41.1693 158.102 41.3142 157.786 41.4774C157.648 41.5495 157.511 41.6215 157.371 41.6896C157.354 41.6973 157.347 41.7012 157.335 41.706C157.35 41.7002 157.367 41.6925 157.389 41.6848C157.37 41.6916 157.352 41.7002 157.334 41.7069C157.288 41.728 157.287 41.7261 157.324 41.7108C157.23 41.7482 157.137 41.7847 157.045 41.824C157.08 41.8087 156.882 41.8884 156.824 41.9143C156.773 41.9325 156.717 41.9527 156.716 41.9527C156.587 41.9988 156.454 42.041 156.322 42.0785C156.172 42.1198 156.021 42.1562 155.869 42.1879C155.801 42.2004 155.733 42.2138 155.666 42.2254C155.65 42.2282 155.626 42.2302 155.6 42.2321C155.046 42.2666 154.493 42.2849 153.939 42.2302C153.894 42.2206 153.676 42.1879 153.622 42.1764C153.471 42.1438 153.321 42.1063 153.173 42.0612C153.042 42.0228 152.912 41.9767 152.785 41.9297C152.746 41.9153 152.729 41.9095 152.719 41.9066C152.725 41.9085 152.728 41.9076 152.693 41.8912C152.615 41.8548 152.538 41.8173 152.46 41.778C151.989 41.5389 151.398 41.6531 151.121 42.1284C150.831 42.6238 151.043 43.1557 151.471 43.4687C152.669 44.3395 154.207 44.8042 155.687 44.6995C156.432 44.6458 157.184 44.5113 157.879 44.231C158.66 43.918 159.566 43.389 159.909 42.5883C160.077 42.2004 160.111 41.8029 159.83 41.4506Z" fill="#FFFBD1"/>
</g>
</g>
</g>
</g>
<g opacity="0.160004">
<g opacity="0.160004">
<g opacity="0.149994">
<g opacity="0.149994">
<path opacity="0.149994" d="M157.335 41.7056C157.331 41.7075 157.327 41.7094 157.324 41.7113C157.327 41.7094 157.33 41.7085 157.334 41.7065C157.334 41.7065 157.335 41.7065 157.335 41.7056Z" fill="#FFFBD1"/>
</g>
</g>
</g>
</g>
</g>
</svg>
