<svg width="214" height="247" viewBox="0 0 214 247" fill="none" xmlns="http://www.w3.org/2000/svg">
<path d="M131.867 0.328839C135.533 -1.96476 136.023 8.45445 134.102 9.51303C132.19 10.5716 128.201 2.62342 131.867 0.328839Z" fill="#7E3F1F"/>
<path d="M143.707 1.75024C147.706 2.45597 141.072 11.8176 138.111 11.2873C136.768 11.0423 139.698 1.0357 143.707 1.75024Z" fill="#7E3F1F"/>
<path d="M61.3244 73.0672L61.4323 73.4985C61.4323 73.4985 65.0883 93.5341 63.6867 96.357C62.2948 99.1799 58.7172 104.522 63.9513 117.754C66.2155 123.487 72.0083 129.438 80.5946 133.799C75.7231 131.544 66.0881 127.408 64.51 129.094C64.1767 129.456 63.5004 130.388 62.5889 131.771L61.9518 131.505C53.885 126.163 46.0338 119.008 40.3978 113.432V113.421C40.339 112.597 37.8004 74.9001 43.3677 53.2295C49.0037 31.3218 94.3464 8.25934 108.98 5.90594C123.614 3.56432 134.72 17.7082 134.72 17.7082C134.72 17.7082 151.461 10.4147 160.037 18.658C166.32 24.7056 179.553 46.9761 190.364 64.8436C192.785 68.8623 195.097 72.6555 197.176 75.9881C198.46 78.0573 199.656 79.9392 200.733 81.5947C211.379 97.8557 216.946 99.9935 216.936 102.111C216.936 104.227 211.217 113.293 206.855 114.881C206.855 114.881 201.42 107.629 200.724 107.629C200.028 107.629 207.997 118.575 207.997 120.339C207.987 122.113 192.178 131.594 185.121 133.025C183.376 133.378 181.375 119.685 178.945 116.823C179.043 117.4 182.653 130.755 181.732 134.716C180.792 138.784 160.482 139.812 157.523 138.478C155.965 137.773 159.243 123.051 160.782 114.881C168.055 103.346 170.055 92.1805 170.055 92.1805C170.055 92.1805 180.288 89.7409 180.317 77.1055C180.347 66.0296 170.838 58.7273 162.694 67.6665C138.503 59.8251 135.053 37.3116 134.71 34.4887C134.886 36.5559 135.915 48.7492 134.641 50.6899C133.24 52.8071 112.097 57.2776 109.774 57.0228C107.451 56.767 103.315 41.4861 103.08 43.1328C102.835 44.7805 103.501 58.4431 103.031 59.7183C102.56 60.9925 84.4369 65.5003 82.3491 65.265C80.2613 65.0308 78.6637 53.9539 77.7325 54.8948C76.8013 55.8358 74.9096 67.6175 73.5178 69.0299C72.763 69.7836 66.8036 71.6264 61.3244 73.0672ZM134.71 34.4583C134.69 34.2829 134.68 34.1946 134.68 34.1946C134.68 34.1946 134.69 34.2917 134.71 34.4583Z" fill="#7E3F1F"/>
<path d="M45.5335 167.232C47.7497 156.294 58.0512 138.611 62.5885 131.77C63.5 130.388 64.1773 129.457 64.5096 129.094C66.0886 127.408 75.7237 131.544 80.5952 133.799C81.4567 134.25 82.3497 134.671 83.2602 135.063C83.3583 135.102 83.4082 135.132 83.4082 135.132C92.4444 139.112 104.119 141.346 117.694 140.131L117.743 140.699C117.743 140.699 125.928 151.824 135.376 147.511C146.471 142.454 143.767 132.427 143.767 132.427L143.678 132.28C151.304 127.536 156.822 121.155 160.782 114.882C162.546 122.801 159.38 135.808 160.939 136.514C163.9 137.848 179.229 136.602 180.17 132.534C181.092 128.576 179.042 117.401 178.944 116.822C181.375 119.684 183.943 130.594 185.688 130.241C192.745 128.81 206.438 120.89 206.448 119.116C206.448 117.352 200.028 107.628 200.724 107.628C201.42 107.628 205.763 113.107 205.763 113.107C210.124 111.52 216.936 104.227 216.936 102.111C216.946 99.9928 211.378 97.856 200.734 81.595C199.655 79.9385 198.461 78.0575 197.176 75.9884C204.371 79.3014 215.025 86.4762 221.769 92.171C224.944 94.8469 227.248 97.1993 227.924 98.6499C230.071 103.306 204.801 156.656 204.801 156.656L243.3 242.24C243.3 242.24 229.04 262.978 169.642 274.947C133.326 282.259 91.18 264.465 91.18 264.465C85.6421 245.793 84.6619 192.972 84.6619 192.972C72.9292 189.188 44.7788 174.692 45.1424 169.898C45.2002 169.065 45.3384 168.173 45.5335 167.232Z" fill="#F05664"/>
<path d="M143.767 132.427C143.767 132.427 146.472 142.453 135.376 147.512C125.928 151.824 117.742 140.698 117.742 140.698L117.693 140.13C120.703 139.866 123.801 139.434 126.976 138.808C133.436 137.543 138.964 135.229 143.678 132.28L143.767 132.427Z" fill="#FFC8B3"/>
<g opacity="0.130005">
<g opacity="0.130005">
<path opacity="0.130005" d="M160.782 114.881C156.822 121.155 151.304 127.535 143.678 132.279C138.964 135.23 133.436 137.543 126.976 138.807C123.801 139.435 120.703 139.866 117.694 140.131C106.302 141.151 96.2565 139.735 87.9771 136.904C97.7141 141.569 108.897 143.62 119.651 142.869C128.409 142.258 136.879 139.783 144.056 135.341C151.379 130.806 157.355 124.225 160.901 115.473C160.863 115.274 160.825 115.076 160.782 114.881Z" fill="#53004E"/>
</g>
</g>
<path d="M9.54181 106.148C9.16935 105.648 2.29836 96.5423 4.37632 93.5527C6.50328 90.476 15.7071 101.552 15.7071 101.552C15.7071 101.552 9.76725 92.4647 11.855 89.7203C13.933 86.967 24.0199 100.611 24.0199 100.611C24.0199 100.611 24.656 94.1516 27.0477 94.5819C30.1842 95.1504 31.9877 104.571 31.9877 104.571C31.9877 104.571 35.2811 108.353 40.3976 113.421V113.432C46.0335 119.008 53.8847 126.163 61.9515 131.505L62.5886 131.771C58.0504 138.611 47.7488 156.293 45.5337 167.232C22.3722 143.992 1.09275 116 1.12215 113.187C1.15156 110.265 7.10119 114.058 7.65008 114.412C7.03258 113.744 -1.24986 104.795 0.161585 101.748C1.59263 98.6506 9.15955 105.786 9.54181 106.148Z" fill="#FFC8B3"/>
<path d="M232.472 19.0899C233.952 21.5011 230.178 60.1786 222.259 92.092L221.769 92.1714C215.024 86.4766 204.371 79.3017 197.175 75.9887C195.097 72.6552 192.785 68.8619 190.364 64.8442C197.892 48.3676 201.576 27.5977 201.576 27.5977C201.576 27.5977 198.273 18.589 200.675 16.4924C202.499 14.8947 206.369 20.0985 206.369 20.0985C206.369 20.0985 207.996 3.21112 211.193 4.49416C214.388 5.77917 213.986 16.6287 213.986 16.6287C213.986 16.6287 216.171 2.39758 219.583 3.93645C222.983 5.47433 221.63 17.4236 221.63 17.4236C221.63 17.4236 224.513 6.82697 227.405 8.7873C230.295 10.7476 227.493 23.5497 227.493 23.5497C227.493 23.5497 230.864 16.4826 232.472 19.0899Z" fill="#FFC8B3"/>
<path d="M162.693 67.6666C170.839 58.7275 180.346 66.0297 180.317 77.1057C180.287 89.741 170.054 92.1807 170.054 92.1807C170.054 92.1807 168.055 103.345 160.782 114.881C156.822 121.155 151.304 127.535 143.678 132.279C138.963 135.23 133.435 137.543 126.976 138.807C123.8 139.435 120.703 139.866 117.694 140.131C104.118 141.346 92.4445 139.112 83.4074 135.132C83.4074 135.132 83.3583 135.102 83.2603 135.063C82.9075 134.887 81.9273 134.406 80.5943 133.799C72.008 129.438 66.2152 123.487 63.951 117.754C58.7169 104.522 62.2945 99.1791 63.6863 96.3572C65.088 93.5343 61.4319 73.4986 61.4319 73.4986L61.3241 73.0674C66.8033 71.6265 72.7627 69.7838 73.5184 69.03C74.9093 67.6176 76.801 55.836 77.7322 54.895C78.6643 53.954 80.261 65.031 82.3488 65.2652C84.4365 65.5005 102.56 60.9917 103.03 59.7184C103.501 58.4432 102.834 44.7797 103.079 43.133C103.315 41.4863 107.451 56.7671 109.774 57.023C112.097 57.2768 133.239 52.8073 134.641 50.6901C135.915 48.7494 134.886 36.556 134.709 34.4879C135.053 37.3108 138.503 59.8253 162.693 67.6666Z" fill="#FFC8B3"/>
<path d="M102.617 43.0667C102.635 42.9951 102.619 42.9207 102.75 42.7256C102.9 42.5443 103.147 42.4894 103.351 42.5776C103.45 42.6207 103.52 42.6844 103.553 42.7187C103.681 42.856 103.705 42.9187 103.762 43.005C103.853 43.1608 103.922 43.3019 103.993 43.446L104.376 44.2939L105.06 45.9856L106.407 49.3467C106.852 50.464 107.306 51.5746 107.799 52.6547C108.292 53.7221 108.82 54.818 109.45 55.6668C109.6 55.8667 109.777 56.0598 109.886 56.1265C109.937 56.1657 109.966 56.1559 109.871 56.1363C109.924 56.1392 110.065 56.1343 110.187 56.1275C110.722 56.0971 111.318 56.0147 111.9 55.9285C113.071 55.7521 114.252 55.5345 115.43 55.3041C117.787 54.8444 120.135 54.3161 122.473 53.7594C124.814 53.2213 127.149 52.643 129.435 51.9627C130.572 51.6206 131.713 51.255 132.759 50.81C133.019 50.6993 133.272 50.5817 133.493 50.4572C133.707 50.3523 133.929 50.1582 133.897 50.1974C134.027 50.0132 134.182 49.3672 134.25 48.8379C134.545 46.559 134.503 44.1174 134.469 41.7268C134.452 39.3205 134.334 36.9112 134.244 34.499C134.234 34.2403 134.435 34.0227 134.694 34.0129C134.937 34.004 135.144 34.1834 135.175 34.4196C135.495 36.825 135.712 39.2411 135.897 41.666C136.035 44.1027 136.173 46.5149 135.951 49.0487C135.92 49.3672 135.873 49.6936 135.804 50.0298C135.715 50.3817 135.666 50.711 135.391 51.1737C135 51.7049 134.689 51.8333 134.383 52.0294C134.079 52.2029 133.784 52.343 133.49 52.4744C132.316 52.9899 131.152 53.3742 129.981 53.7457C127.64 54.4729 125.285 55.0875 122.922 55.6638C120.553 56.2147 118.172 56.7018 115.778 57.1429C114.579 57.3615 113.378 57.5664 112.157 57.7349C111.541 57.8163 110.938 57.8957 110.266 57.9261C110.086 57.929 109.923 57.9349 109.674 57.9084C109.277 57.8545 109.032 57.6899 108.843 57.5507C108.463 57.2576 108.259 56.9704 108.051 56.6862C107.287 55.5531 106.823 54.4249 106.342 53.284C105.877 52.145 105.457 50.9992 105.055 49.8514L103.923 46.3954L103.356 44.683L103.064 43.8489C103.012 43.7156 102.959 43.5813 102.907 43.4705C102.887 43.4264 102.841 43.3539 102.866 43.3794C102.875 43.3853 102.912 43.4274 102.979 43.4519C103.144 43.5235 103.357 43.4774 103.478 43.3274C103.522 43.2823 103.541 43.2137 103.542 43.2088V43.199C103.506 43.4548 103.269 43.6323 103.013 43.596C102.758 43.5597 102.58 43.3225 102.617 43.0667Z" fill="#612910"/>
<path d="M77.4005 54.5664C77.4819 54.4919 77.5917 54.4243 77.6995 54.387C77.8142 54.3557 77.9808 54.3723 78.1043 54.4174C78.2533 54.49 78.3905 54.6135 78.4326 54.6772C78.5738 54.8428 78.6306 54.9644 78.7071 55.1006C78.8482 55.3623 78.9472 55.6103 79.0531 55.8632C79.2491 56.366 79.4167 56.8639 79.5824 57.3619L80.5596 60.3161C80.8821 61.2894 81.2183 62.2598 81.627 63.1458C81.8299 63.5791 82.0691 64.0143 82.3063 64.277C82.417 64.422 82.5445 64.4593 82.4572 64.4201C82.4896 64.423 82.7679 64.4132 82.9904 64.3799C84.9292 64.0819 86.9876 63.6281 88.9822 63.1517C90.9916 62.6734 92.9911 62.1451 94.9818 61.5972C96.9706 61.064 98.9721 60.5072 100.864 59.825C101.325 59.6545 101.806 59.4614 102.15 59.2722C102.256 59.2193 102.267 59.1938 102.301 59.184C102.261 59.2144 102.225 59.2575 102.202 59.3065C102.176 59.3555 102.167 59.4261 102.171 59.383C102.173 59.3536 102.176 59.3242 102.182 59.2957C102.197 59.2624 102.21 59.136 102.217 59.0164L102.25 58.6665C102.3 57.6736 102.321 56.6336 102.343 55.6054L102.378 49.3813L102.433 46.2565C102.464 45.1989 102.468 44.2021 102.617 43.0651C102.651 42.8103 102.883 42.6309 103.138 42.6632C103.371 42.6946 103.542 42.8936 103.542 43.1229V43.2013C103.547 45.1489 103.698 47.2985 103.807 49.3509L104.057 55.5946C104.083 56.6434 104.116 57.6834 104.064 58.7664L104.033 59.1938C104.022 59.332 104.018 59.4663 103.969 59.6858L103.903 59.9799C103.906 60.0064 103.85 60.1259 103.787 60.2269C103.724 60.3279 103.65 60.4239 103.572 60.5072C103.4 60.6552 103.209 60.7944 103.083 60.8591C102.52 61.1777 102.031 61.3668 101.522 61.5688C99.5141 62.3245 97.5136 62.9096 95.4964 63.484C93.4763 64.027 91.4454 64.5171 89.4037 64.9748C87.3453 65.4091 85.3468 65.8982 83.1571 66.1011C82.865 66.1148 82.617 66.1589 82.1377 66.0834C81.5359 65.9403 81.2526 65.6002 81.0409 65.3483C80.6145 64.8082 80.394 64.2966 80.1744 63.7839C79.7588 62.7606 79.4608 61.7471 79.1786 60.7337L78.4219 57.7C78.2954 57.2011 78.167 56.7022 78.0229 56.2219C77.9514 55.9857 77.8789 55.7426 77.7926 55.5378C77.7554 55.4417 77.7005 55.3231 77.675 55.2898C77.6485 55.2408 77.673 55.2908 77.7191 55.2898C77.7789 55.33 77.8779 55.3241 77.9328 55.3025C77.9847 55.2986 78.0386 55.2653 78.0651 55.2241C77.8828 55.4074 77.5868 55.4084 77.4035 55.228C77.2202 55.0457 77.2182 54.7497 77.4005 54.5664Z" fill="#612910"/>
<path d="M75.0506 29.0485C72.0454 31.3705 69.1215 33.8474 66.4143 36.5145C63.6923 39.16 61.1047 41.9623 58.9669 45.0478C58.4759 45.8418 57.8986 46.5906 57.479 47.4179L56.7969 48.6313C56.5773 49.0391 56.4136 49.4674 56.2195 49.884C55.455 51.5513 54.9002 53.3812 54.4092 55.1887C53.4378 58.8261 52.8732 62.5821 52.5949 66.3459C52.4527 68.2269 52.3802 70.1196 52.4439 71.9839C52.4586 72.4485 52.4861 72.9111 52.5292 73.36C52.5508 73.5845 52.5772 73.805 52.6096 74.0099C52.6282 74.1079 52.6449 74.2167 52.6654 74.2883C52.6743 74.3255 52.6909 74.3833 52.6909 74.3833C52.686 74.3814 52.7272 74.4627 52.6498 74.3245C52.6243 74.2892 52.4273 74.0511 52.2048 74.0344C52.2126 74.0295 52.2185 74.0285 52.2244 74.0324C52.2939 74.0295 52.3802 74.0315 52.4802 74.0226C52.6841 74.0079 52.9056 73.9795 53.1281 73.9501C53.5809 73.8805 54.0387 73.8041 54.5023 73.7129C58.2103 72.9817 61.9173 71.9947 65.5929 70.9959C67.4268 70.4813 69.2636 69.9481 71.0358 69.3257C71.4778 69.1688 71.915 69.0042 72.3267 68.8277C72.5315 68.7376 72.7227 68.6454 72.8795 68.5562C72.9412 68.5043 72.9569 68.5268 72.9981 68.4621C73.0304 68.4043 73.0687 68.3524 73.1108 68.3004C73.4921 67.63 73.7734 66.6606 74.0498 65.7843C74.5977 63.9769 75.0623 62.1175 75.5377 60.2601C75.7778 59.3309 76.0111 58.3987 76.2738 57.4676C76.4061 57.002 76.5434 56.5374 76.7002 56.0679C76.7864 55.8317 76.8462 55.6052 76.958 55.3602L77.1128 54.9985C77.1952 54.8525 77.2981 54.7025 77.4 54.5663C77.5431 54.3751 77.8127 54.3369 78.0048 54.479C78.1587 54.5937 78.2145 54.7937 78.1538 54.9652L78.0646 55.224C78.0411 55.2916 78.0126 55.3435 77.9754 55.4043L77.8656 55.7111C77.7852 55.9052 77.7323 56.1473 77.6666 56.3649C77.5431 56.8138 77.4324 57.2755 77.3265 57.7391L76.709 60.5355C76.3062 62.4096 75.916 64.2905 75.426 66.1754C75.1525 67.1301 74.9437 68.0348 74.4144 69.0571C74.3194 69.2031 74.2194 69.3462 74.1155 69.4854C74.0233 69.6197 73.8146 69.7589 73.6871 69.8481C73.4323 70.0039 73.1922 70.1225 72.9608 70.2313C72.4972 70.444 72.0405 70.6283 71.5817 70.8038C69.7527 71.4958 67.9179 72.075 66.0732 72.6416C62.3819 73.7698 58.667 74.748 54.8581 75.5429C54.3817 75.6399 53.8955 75.7262 53.4006 75.8046C53.1487 75.8399 52.8948 75.8752 52.6203 75.8987C52.4831 75.9104 52.3273 75.9144 52.1587 75.9144C52.045 75.9075 51.9313 75.8957 51.8195 75.8791C51.4912 75.8105 51.1628 75.5497 51.0932 75.39C50.9413 75.1557 50.956 75.1165 50.907 75.0048C50.8658 74.894 50.8551 74.8323 50.8335 74.7538C50.7913 74.5951 50.7708 74.4657 50.7453 74.3275C50.6992 74.0609 50.6669 73.805 50.6414 73.5522C50.5894 73.0484 50.5561 72.5524 50.5355 72.0603C50.4532 70.0912 50.514 68.1465 50.6453 66.2028C50.9433 62.3223 51.5696 58.4664 52.6037 54.6996C53.1349 52.8147 53.7083 50.9602 54.5513 49.1469C55.3295 47.2963 56.4332 45.6516 57.5565 44.0461C62.2584 37.7642 68.1805 32.6928 74.5144 28.283C74.7261 28.135 75.0172 28.1879 75.1643 28.3996C75.3074 28.6045 75.2633 28.8838 75.0682 29.0348L75.0506 29.0485Z" fill="#612910"/>
<g opacity="0.339996">
<g opacity="0.339996">
<path opacity="0.339996" d="M157.294 87.4825C157.313 80.0665 151.402 74.0493 144.092 74.0454C136.782 74.0405 130.84 80.0499 130.82 87.4668C130.802 94.8838 136.711 100.9 144.021 100.905C151.332 100.909 157.273 94.8995 157.294 87.4825Z" fill="#F16B92"/>
</g>
</g>
<g opacity="0.339996">
<g opacity="0.339996">
<path opacity="0.339996" d="M89.9666 109.489C89.9862 102.073 84.0748 96.0553 76.7647 96.0504C69.4546 96.0464 63.5128 102.056 63.4932 109.473C63.4746 116.89 69.384 122.906 76.6941 122.91C84.0052 122.915 89.946 116.905 89.9666 109.489Z" fill="#F16B92"/>
</g>
</g>
<path d="M164.651 75.8794C164.712 74.7208 164.989 73.6289 165.458 72.5615C165.929 71.5058 166.598 70.462 167.653 69.6837C168.177 69.2985 168.883 68.976 169.563 68.9201C170.244 68.8496 170.906 68.9201 171.499 69.1093C172.686 69.4906 173.657 70.1326 174.467 70.9912C174.645 71.1804 174.637 71.4794 174.447 71.6568C174.304 71.792 174.097 71.8195 173.928 71.743L173.886 71.7234C172.972 71.3049 171.998 70.9344 171.1 70.7903C170.182 70.6737 169.423 70.7599 168.808 71.2647C168.115 71.7538 167.53 72.534 167 73.3672C166.478 74.2062 166.013 75.1481 165.565 76.0774L165.549 76.1097C165.435 76.3459 165.153 76.443 164.917 76.3302C164.741 76.245 164.641 76.0626 164.651 75.8794Z" fill="#C96550"/>
<g opacity="0.339996">
<g opacity="0.339996">
<path opacity="0.339996" d="M103.264 72.0602C106.057 72.3631 108.609 76.4318 108.229 78.8518C107.851 81.2709 104.973 83.4635 102.05 83.0832C99.1255 82.7029 96.88 80.7357 96.9025 77.805C96.9192 75.6565 99.6499 71.6691 103.264 72.0602Z" fill="#F16B92"/>
</g>
</g>
<path d="M106.309 81.7059C105.294 81.4177 107.36 78.3576 108.048 78.7497C108.738 79.1437 107.324 81.994 106.309 81.7059Z" fill="#521A09"/>
<path d="M100.41 82.2878C99.743 81.8947 99.0892 81.3909 98.6423 80.7979C98.1835 80.2069 97.8719 79.5414 97.7405 78.8043C97.6572 78.4494 97.6366 78.0378 97.6268 77.6898C97.6229 77.3556 97.7052 76.9998 97.8062 76.6322C98.0316 75.9049 98.4404 75.16 98.8648 74.4611L98.8805 74.4327C98.9834 74.2622 98.9314 74.0416 98.7638 73.9367C98.6354 73.8564 98.4747 73.8711 98.361 73.9593C97.62 74.5395 97.0367 75.2551 96.6065 76.1421C96.3869 76.5822 96.2448 77.0811 96.1958 77.6173C96.1713 78.1407 96.2007 78.6033 96.2918 79.1022C96.4751 80.0795 96.9593 81.0322 97.6886 81.7036C98.406 82.3897 99.2608 82.8357 100.225 82.9788C100.418 83.0072 100.597 82.873 100.626 82.6759C100.648 82.527 100.576 82.3868 100.456 82.3143L100.41 82.2878Z" fill="#8D3027"/>
<path d="M87.0469 80.0557C87.0538 77.6013 85.0973 75.6106 82.6783 75.6096C80.2592 75.6077 78.293 77.5964 78.2871 80.0508C78.2812 82.5051 80.2367 84.4949 82.6557 84.4968C85.0738 84.4978 87.04 82.51 87.0469 80.0557Z" fill="black"/>
<path d="M76.2883 75.9034C77.1548 76.3092 77.8644 76.8179 78.5398 77.1433C78.8711 77.3158 79.1867 77.4354 79.5052 77.5412C79.8248 77.6197 80.16 77.6549 80.6246 77.6657L80.7216 77.6677C80.998 77.6745 81.2156 77.9059 81.2098 78.1852C81.2068 78.3087 81.1598 78.4214 81.0853 78.5077C80.6922 78.9605 80.0865 79.2624 79.4415 79.3212C78.8005 79.3751 78.185 79.2046 77.6566 78.9546C77.1303 78.691 76.6902 78.3362 76.3344 77.9215C75.9747 77.505 75.6953 77.0551 75.5316 76.4876C75.4522 76.2151 75.6061 75.9298 75.8747 75.8495C75.9962 75.8122 76.1217 75.825 76.2285 75.8759L76.2883 75.9034Z" fill="black"/>
<path d="M119.519 72.7283C118.251 70.6405 118.893 67.9029 120.953 66.612C123.013 65.3211 125.711 65.9681 126.978 68.0539C128.246 70.1416 127.604 72.8802 125.544 74.1721C123.485 75.462 120.786 74.816 119.519 72.7283Z" fill="black"/>
<path d="M126.549 63.4551C126.019 64.2627 125.675 65.0743 125.268 65.7114C125.075 66.0368 124.869 66.3064 124.65 66.5661C124.418 66.8043 124.151 67.0131 123.761 67.2689L123.679 67.3228C123.447 67.4757 123.381 67.7884 123.531 68.0227C123.596 68.1275 123.694 68.1981 123.802 68.2314C124.369 68.4079 125.041 68.3412 125.62 68.0491C126.196 67.7531 126.632 67.2787 126.952 66.7847C127.265 66.2799 127.458 65.7438 127.547 65.1998C127.639 64.6538 127.646 64.1206 127.494 63.5501C127.422 63.2757 127.144 63.1149 126.874 63.1894C126.75 63.2237 126.65 63.3012 126.585 63.4002L126.549 63.4551Z" fill="black"/>
<path d="M128.319 81.86C132.161 84.4565 131.906 94.8757 126.251 103.012C126.251 103.012 117.409 97.7583 108.648 101.168C98.7576 105.021 96.9826 112.098 96.9826 112.098C87.2299 108.637 83.4866 99.2776 84.9755 95.1511C87.7886 87.3783 96.8649 92.24 105.432 89.9748C116.968 86.9177 121.869 77.4982 128.319 81.86Z" fill="black"/>
<path d="M108.647 101.169C117.409 97.7586 126.251 103.012 126.251 103.012C123.124 107.52 118.321 111.333 111.636 112.715C105.755 113.931 100.894 113.489 96.9829 112.097C96.9829 112.097 98.757 105.022 108.647 101.169Z" fill="#FF8693"/>
<path d="M11.4191 112.618C11.5622 111.533 11.9141 110.548 12.3787 109.592C12.8403 108.639 13.4441 107.753 14.143 106.942C14.8448 106.135 15.6711 105.42 16.5875 104.856C17.4864 104.262 18.5263 103.891 19.5614 103.678C19.8162 103.625 20.0662 103.789 20.1191 104.045C20.1573 104.233 20.0789 104.419 19.9319 104.523L19.8937 104.551C19.0889 105.127 18.2979 105.621 17.6001 106.255C16.8953 106.87 16.218 107.508 15.6182 108.229C15.0006 108.932 14.4312 109.686 13.8832 110.468C13.3442 111.249 12.8188 112.081 12.3111 112.895L12.2895 112.93C12.1513 113.153 11.8592 113.219 11.6377 113.082C11.475 112.98 11.3956 112.796 11.4191 112.618Z" fill="#C96550"/>
<path d="M222.733 24.6043C221.879 24.1681 221 23.7251 220.136 23.332C219.263 22.9448 218.387 22.591 217.495 22.3067C216.61 21.998 215.7 21.799 214.781 21.6353C213.856 21.4511 212.922 21.4364 211.935 21.356L211.89 21.3521C211.631 21.3305 211.436 21.1031 211.457 20.8424C211.474 20.6512 211.602 20.4954 211.772 20.4346C212.77 20.0857 213.851 19.8681 214.927 19.9142C216.004 19.9269 217.079 20.1121 218.098 20.4444C219.114 20.7796 220.088 21.2286 220.975 21.8069C221.865 22.3861 222.672 23.0497 223.355 23.9064C223.518 24.1112 223.485 24.4092 223.281 24.5719C223.13 24.6915 222.93 24.7052 222.77 24.6239L222.733 24.6043Z" fill="#C96550"/>
<path d="M163.353 60.368C159.682 56.214 155.975 52.1571 152.768 47.6179C149.619 43.1611 146.792 38.4612 144.422 33.5466C144.198 33.0839 143.384 33.4152 143.582 33.9004C145.699 39.0738 148.25 44.0364 151.383 48.6706C154.497 53.2784 158.046 57.8087 162.28 61.4403C163.02 62.0744 164.003 61.1041 163.353 60.368Z" fill="#612910"/>
<path d="M165.421 53.6619C163.841 50.7988 161.988 48.0485 160.213 45.303C158.426 42.5409 156.633 39.7847 154.853 37.0196C154.571 36.5815 153.924 36.9628 154.159 37.4244C155.672 40.4139 157.275 43.3231 159.024 46.1822C160.723 48.9591 162.549 51.7653 164.645 54.2598C165.016 54.7019 165.684 54.1373 165.421 53.6619Z" fill="#612910"/>
<path d="M180.132 124.065C179.903 120.893 179.489 117.733 178.95 114.599C178.406 111.434 177.726 108.294 176.97 105.174C176.582 103.573 176.152 101.985 175.701 100.4C175.318 99.0508 175.087 97.3806 174.216 96.2573C174.016 95.9985 173.676 96.2465 173.648 96.4925C173.484 97.8638 174.15 99.4125 174.475 100.739C174.849 102.263 175.213 103.788 175.583 105.312C176.32 108.358 176.983 111.422 177.522 114.508C178.062 117.596 178.473 120.706 178.703 123.832C178.936 127.019 178.682 130.227 178.927 133.402C178.973 134.004 179.925 134.233 180.055 133.555C180.642 130.494 180.354 127.154 180.132 124.065Z" fill="#612910"/>
<path d="M205.47 114.853C204.736 113.531 204.005 112.21 203.278 110.885C201.785 108.167 200.292 105.448 198.808 102.726C195.838 97.2753 192.808 91.8932 189.642 86.5561C189.546 86.3944 189.249 86.5032 189.326 86.6894C191.728 92.3813 194.342 97.9114 197.197 103.392C198.63 106.143 200.082 108.883 201.57 111.606C202.332 113.003 203.098 114.397 203.869 115.789C204.479 116.893 205.04 118.599 206.228 119.169C206.66 119.377 207.081 119.12 207.127 118.655C207.258 117.338 206.087 115.96 205.47 114.853Z" fill="#612910"/>
<path d="M209.073 100.454C204.53 93.7864 199.757 87.2751 195.203 80.6139C190.64 73.9409 186.234 67.16 181.767 60.4253C181.555 60.1067 181.063 60.3871 181.25 60.7272C185.21 67.8599 189.574 74.7426 194.13 81.5107C198.607 88.1641 203.264 94.8067 208.388 100.983C208.702 101.362 209.352 100.863 209.073 100.454Z" fill="#612910"/>
<path d="M176.108 53.548C175.112 49.5519 173.11 45.6263 171.26 41.9653C169.533 38.5514 167.556 35.2698 165.182 32.2656C162.97 29.4701 160.401 26.9393 157.467 24.9045C154.808 23.0618 151.386 21.2985 148.236 22.9834C147.896 23.1667 148.128 23.7361 148.502 23.6136C152.002 22.4688 155.663 25.0251 158.28 27.0991C160.888 29.1653 163.153 31.653 165.102 34.3435C167.181 37.2115 168.917 40.3098 170.459 43.4934C172.114 46.9113 173.312 50.6428 175.247 53.9107C175.52 54.3733 176.237 54.0665 176.108 53.548Z" fill="#612910"/>
<path d="M48.3465 93.152C48.2534 89.1118 48.3308 85.0705 48.5612 81.0362C48.5857 80.6059 47.926 80.6117 47.8947 81.0362C47.5889 85.146 47.433 89.2676 47.4683 93.3902C47.5036 97.3403 47.6437 101.433 48.2613 105.34C48.3181 105.7 48.9042 105.612 48.8935 105.255C48.769 101.218 48.4396 97.1933 48.3465 93.152Z" fill="#612910"/>
<path d="M57.7637 119.485C57.3853 117.858 57.0835 116.214 56.8453 114.561C56.3454 111.071 56.117 107.544 55.9729 104.024C55.6799 96.9043 55.4613 89.7785 55.23 82.6566C55.2064 81.9195 54.0665 81.9146 54.0812 82.6566C54.2321 89.9294 54.2174 97.216 54.5723 104.482C54.735 107.821 55.0075 111.154 55.5024 114.461C55.7494 116.112 56.0562 117.754 56.4365 119.38C56.8188 121.021 57.1423 122.797 58.1117 124.206C58.293 124.469 58.7693 124.398 58.7546 124.033C58.686 122.472 58.1166 120.997 57.7637 119.485Z" fill="#612910"/>
<g opacity="0.380005">
<g opacity="0.380005">
<path opacity="0.380005" d="M63.2897 51.5656C63.2456 51.2304 63.2348 50.8716 63.0515 50.5786C62.9015 50.3394 62.6408 50.0297 62.3154 50.063C62.0762 50.0875 61.9027 50.164 61.7243 50.3257C61.6822 50.3639 61.6361 50.4031 61.5959 50.4443C61.5038 50.5315 61.4372 50.6335 61.3989 50.7521C61.3764 50.806 61.3685 50.8236 61.3617 50.8403C61.2205 51.1667 61.0559 51.4833 60.9333 51.8165C60.8294 52.0959 60.7177 52.3723 60.6138 52.6516C60.6138 52.6526 60.6138 52.6526 60.6128 52.6546C60.5824 52.7212 60.5521 52.7869 60.5227 52.8536C60.4531 53.0094 60.3913 53.1672 60.3286 53.324C60.0512 53.9504 59.6434 54.5885 59.7023 55.2912C59.7522 55.897 60.0365 56.4067 60.6177 56.6517C61.1951 56.8958 61.7812 56.7438 62.2458 56.3439C62.777 55.8872 62.9398 55.1668 63.0819 54.5091C63.1975 53.9758 63.2681 53.4368 63.3093 52.8928C63.3436 52.4409 63.3485 52.0155 63.2897 51.5656Z" fill="#FFFBD1"/>
</g>
</g>
<g opacity="0.380005">
<g opacity="0.380005">
<path opacity="0.380005" d="M68.5913 52.0452C68.4717 51.5306 68.1512 50.8945 67.6729 50.6298C67.071 50.2966 66.332 50.4936 65.9693 51.0758C65.8154 51.3218 65.8037 51.5286 65.7674 51.808C65.7831 51.6923 65.7978 51.5757 65.8135 51.461C65.7792 51.7002 65.7164 51.9305 65.7008 52.1736C65.6968 52.2383 65.69 52.303 65.6851 52.3667C65.6312 52.6744 65.5508 52.9763 65.443 53.2694C65.4067 53.3429 65.3734 53.4194 65.3322 53.4919C65.2303 53.6634 65.147 53.8536 65.0901 54.0437C65.0156 54.2966 65.0156 54.5211 65.0489 54.772C65.0715 54.9377 65.1234 55.1111 65.197 55.2709C65.3205 55.5826 65.5508 55.8914 65.8429 56.0453C66.133 56.1991 66.432 56.2589 66.7446 56.2354C66.8838 56.2354 67.0505 56.2148 67.1671 56.1835C67.4347 56.109 67.7209 55.9453 67.9169 55.7463C68.1531 55.5052 68.307 55.2219 68.4256 54.9092C68.4795 54.7691 68.5237 54.6269 68.5599 54.4809C68.6619 54.0761 68.7197 53.6517 68.7354 53.2351C68.7511 52.8401 68.6805 52.4294 68.5913 52.0452Z" fill="#FFFBD1"/>
</g>
</g>
<g opacity="0.380005">
<g opacity="0.380005">
<path opacity="0.380005" d="M73.1429 46.9912C72.6127 46.9206 71.9403 47.2568 71.8452 47.8391C71.6844 48.8182 71.5012 49.7945 71.2963 50.7658C71.1963 51.2432 71.0777 51.7176 70.9787 52.1959C70.9111 52.5252 70.8611 52.881 70.8376 53.2192C70.8082 53.6613 70.963 54.0367 71.165 54.4209C71.5629 55.1727 72.5882 55.2109 73.1635 54.6787C73.4752 54.3905 73.7252 54.0416 73.8232 53.623C73.8986 53.3074 73.9496 52.98 73.9829 52.6585C74.0369 52.1567 74.0545 51.647 74.081 51.1422C74.1329 50.1474 74.1613 49.1505 74.1692 48.1537C74.1731 47.5636 73.7154 47.0686 73.1429 46.9912Z" fill="#FFFBD1"/>
</g>
</g>
<g opacity="0.380005">
<g opacity="0.380005">
<path opacity="0.380005" d="M86.0115 53.0904C85.9076 52.6934 85.6968 52.4562 85.4195 52.219V52.218C85.4861 52.271 85.4881 52.2651 85.4106 52.1847L85.4096 52.1837C85.2185 51.5407 85.0264 50.9056 84.8804 50.2489C84.8088 49.9352 84.7549 49.6196 84.7049 49.304C84.6971 49.2305 84.6647 48.9864 84.6608 48.9482C84.6432 48.7727 84.6324 48.5963 84.6177 48.4199C84.5638 47.7191 84.4922 47.0261 84.4971 46.3204C84.5001 45.8097 84.1011 45.3637 83.6003 45.3049C83.0749 45.2422 82.6348 45.546 82.4662 46.0459C81.9732 47.5034 81.7713 48.9894 81.8359 50.5282C81.8693 51.3261 81.9908 52.1289 82.1594 52.9091C82.3623 53.851 82.8739 54.9498 83.9561 55.1125C84.7255 55.2272 85.4047 55.0282 85.837 54.347C86.0722 53.9775 86.1213 53.5089 86.0115 53.0904Z" fill="#FFFBD1"/>
</g>
</g>
<g opacity="0.380005">
<g opacity="0.380005">
<path opacity="0.380005" d="M89.7941 49.9767C89.6637 49.3573 89.5 48.7564 89.3226 48.1497C89.2344 47.8468 89.1452 47.5459 89.057 47.243C88.9433 46.8549 88.7541 46.4991 88.5777 46.1384C88.461 45.9002 88.2131 45.7248 87.9778 45.6267C87.7298 45.5209 87.4279 45.4768 87.1633 45.563C86.9565 45.6287 86.7712 45.7385 86.6115 45.8845C86.3576 46.1168 86.2762 46.4452 86.2439 46.7706C86.2135 47.0843 86.1763 47.3871 86.1988 47.7027C86.2204 48.0135 86.2439 48.3242 86.2655 48.6359C86.289 48.9456 86.3056 49.2583 86.3331 49.568C86.3713 50.0061 86.4507 50.4453 86.5154 50.8814C86.5752 51.2725 86.9712 51.7067 87.2966 51.8969C87.6612 52.1106 88.1984 52.2007 88.6071 52.0684C89.0188 51.9351 89.4147 51.6803 89.6225 51.2872C89.8441 50.8687 89.8931 50.4433 89.7941 49.9767Z" fill="#FFFBD1"/>
</g>
</g>
<g opacity="0.380005">
<g opacity="0.380005">
<path opacity="0.380005" d="M94.8072 49.1295C94.7602 48.9462 94.6817 48.7737 94.6014 48.6012C94.4798 48.2954 94.3671 47.9857 94.2691 47.674C94.2142 47.4985 94.1672 47.3211 94.127 47.1427C94.1064 47.0545 94.0936 46.9634 94.0721 46.8761C94.0221 46.6821 93.9202 46.5027 93.8133 46.3351C93.5555 45.9322 93.1419 45.6705 92.6538 45.6705C92.4107 45.6715 92.1843 45.7323 91.9745 45.8538C91.7726 45.9724 91.6119 46.1332 91.4923 46.3351C91.3639 46.5125 91.261 46.7075 91.2178 46.9242C91.1727 47.1545 91.1502 47.3917 91.1218 47.624C91.0943 47.8583 91.0786 48.0945 91.0757 48.3317C91.0708 48.7022 91.1355 49.0756 91.1933 49.4412C91.2119 49.5579 91.2335 49.6765 91.259 49.7921C91.3139 50.046 91.4148 50.2783 91.5295 50.5116C91.6422 50.7204 91.7961 50.888 91.9912 51.0144C92.1647 51.1732 92.3685 51.28 92.6008 51.3359C92.7606 51.3565 92.9194 51.378 93.0782 51.3996C93.3242 51.4084 93.5555 51.3565 93.7682 51.2447C93.9211 51.2026 94.0525 51.1252 94.1652 51.0144C94.3603 50.888 94.5132 50.7204 94.6259 50.5116C94.8543 50.0803 94.9307 49.6088 94.8072 49.1295Z" fill="#FFFBD1"/>
</g>
</g>
<g opacity="0.380005">
<g opacity="0.380005">
<path opacity="0.380005" d="M98.2107 47.8804C98.2077 47.8627 98.2038 47.8461 98.1999 47.8294C98.1901 47.7784 98.1793 47.7285 98.1675 47.6775C98.145 47.5677 98.1205 47.4569 98.097 47.3472C98.0499 47.1266 98.0029 46.908 97.9558 46.6875C97.9147 46.5905 97.8735 46.4915 97.8323 46.3935C97.7549 46.2513 97.65 46.1357 97.5157 46.0494C97.4393 45.973 97.3481 45.92 97.2452 45.8916C97.0982 45.8142 96.9404 45.7789 96.7708 45.7848C96.662 45.8005 96.5532 45.8152 96.4444 45.8289C96.3464 45.87 96.2484 45.9112 96.1504 45.9534C96.0073 46.0298 95.8926 46.1357 95.8063 46.269C95.6975 46.3886 95.623 46.5277 95.5858 46.6875C95.5387 46.908 95.4917 47.1266 95.4446 47.3472C95.4211 47.4569 95.3976 47.5677 95.3741 47.6775C95.2986 48.0264 95.2172 48.4018 95.3564 48.7478C95.4054 48.8645 95.4535 48.9821 95.5034 49.0987C95.5956 49.2693 95.722 49.4075 95.8818 49.5104C95.9739 49.6016 96.0808 49.6633 96.2052 49.6986C96.3807 49.7907 96.5689 49.8329 96.7708 49.825C96.9012 49.8084 97.0315 49.7897 97.1619 49.7731C97.2785 49.7241 97.3952 49.6741 97.5118 49.6251C97.6824 49.5329 97.8206 49.4075 97.9235 49.2477C98.0529 49.1056 98.1411 48.939 98.1862 48.7478C98.2224 48.6586 98.2234 48.5773 98.2362 48.4753C98.2812 48.2773 98.2724 48.0784 98.2107 47.8804Z" fill="#FFFBD1"/>
</g>
</g>
<g opacity="0.380005">
<g opacity="0.380005">
<path opacity="0.380005" d="M112.712 46.6409C112.227 45.1814 111.642 43.769 111.021 42.3625C110.743 41.7342 110.477 41.0931 110.146 40.4913C109.775 39.815 109.408 39.0779 108.796 38.5868C108.367 38.2448 107.886 38.0879 107.352 38.3134C106.841 38.53 106.588 38.9819 106.54 39.52C106.474 40.2835 106.725 41.0432 106.919 41.7724C107.096 42.4409 107.324 43.0946 107.526 43.7563C107.861 44.8541 108.176 45.9577 108.502 47.0585C108.498 47.1133 108.487 47.1653 108.487 47.2231C108.494 48.1857 109.237 48.9894 110.156 49.1972C110.889 49.3628 111.635 49.205 112.177 48.663C112.681 48.1602 112.942 47.3339 112.712 46.6409Z" fill="#FFFBD1"/>
</g>
</g>
<g opacity="0.380005">
<g opacity="0.380005">
<path opacity="0.380005" d="M115.974 42.5909C115.778 42.1773 115.594 41.7558 115.375 41.3559C114.891 40.4757 114.454 39.4818 113.684 38.8133C113.302 38.484 112.821 38.3576 112.341 38.5605C111.868 38.7594 111.626 39.1809 111.585 39.6828C111.502 40.7031 111.896 41.7362 112.168 42.7076C112.29 43.1486 112.455 43.5789 112.604 44.0102C112.839 44.6855 113.02 45.5334 113.552 46.0245C114.108 46.539 114.877 46.7076 115.584 46.4097C116.284 46.1137 116.691 45.4638 116.728 44.7081C116.764 43.9779 116.281 43.2427 115.974 42.5909Z" fill="#FFFBD1"/>
</g>
</g>
<g opacity="0.380005">
<g opacity="0.380005">
<path opacity="0.380005" d="M121.119 42.8753C121.019 42.3872 120.654 41.9089 120.4 41.4825C120.188 41.1267 119.97 40.7778 119.746 40.4298L118.426 38.3812C118.09 37.8588 117.46 37.6275 116.877 37.8725C116.333 38.1029 115.967 38.7449 116.159 39.3369C116.411 40.1142 116.664 40.8915 116.917 41.6687C117.038 42.0441 117.165 42.4176 117.301 42.7891C117.368 42.9753 117.435 43.1606 117.504 43.3458C117.542 43.4526 117.579 43.5585 117.619 43.6653C117.688 43.8349 117.758 44.0025 117.832 44.1701C117.939 44.3152 118.049 44.4563 118.162 44.5965C118.282 44.6886 118.401 44.7798 118.521 44.8729C118.724 45.0023 118.943 45.0719 119.179 45.0827C119.555 45.1336 119.977 45.0846 120.306 44.8729C120.563 44.7073 120.775 44.4936 120.94 44.2387C121.199 43.8369 121.212 43.3223 121.119 42.8753Z" fill="#FFFBD1"/>
</g>
</g>
<g opacity="0.380005">
<g opacity="0.380005">
<path opacity="0.380005" d="M125.633 40.3253C125.503 40.0253 125.327 39.7509 125.138 39.4863C124.891 39.1412 124.629 38.8011 124.339 38.4914C124.23 38.3767 124.12 38.263 124.003 38.1571C123.94 38.1013 123.876 38.0542 123.809 38.0013C123.654 37.8827 123.502 37.818 123.316 37.7474C123.246 37.7219 123.176 37.6974 123.107 37.6739C122.716 37.5426 122.25 37.6916 121.967 37.9758C121.658 38.2826 121.575 38.7002 121.665 39.1157C121.686 39.2089 121.698 39.3049 121.722 39.399C121.77 39.6019 121.897 39.7862 121.997 39.9695C122.065 40.094 122.123 40.2233 122.182 40.3527C122.309 40.6723 122.421 40.9977 122.503 41.3319C122.549 41.5211 122.607 41.7063 122.649 41.8965C122.672 41.9916 122.69 42.0876 122.708 42.1837C122.773 42.5542 122.959 42.8492 123.207 43.1344C123.597 43.5824 124.305 43.7235 124.858 43.5716C125.432 43.4128 125.882 42.957 126.043 42.3866C126.251 41.6544 125.914 40.9781 125.633 40.3253Z" fill="#FFFBD1"/>
</g>
</g>
<g opacity="0.380005">
<g opacity="0.380005">
<path opacity="0.380005" d="M130.207 40.1626C130.095 39.7715 129.933 39.3843 129.74 39.0256C129.557 38.6825 129.319 38.3679 129.069 38.0709C128.816 37.772 128.518 37.5357 128.208 37.2976C127.987 37.128 127.534 37.0937 127.279 37.176C127.025 37.2583 126.816 37.3965 126.653 37.6092C126.496 37.8121 126.382 38.0748 126.393 38.3395C126.408 38.4463 126.422 38.5531 126.436 38.66C126.485 38.8354 126.575 38.9854 126.692 39.1207C126.657 39.0756 126.622 39.0305 126.587 38.9854C126.76 39.2138 126.892 39.4667 127.012 39.7264C127.082 39.9264 127.136 40.1312 127.174 40.34C127.18 40.4165 127.191 40.4939 127.192 40.5713C127.198 40.8448 127.238 41.1124 127.277 41.3829C127.259 41.2457 127.24 41.1094 127.221 40.9732C127.226 41.0046 127.23 41.0369 127.234 41.0683C127.236 41.083 127.237 41.0996 127.239 41.1163C127.231 41.326 127.275 41.5231 127.37 41.7044C127.46 41.9191 127.443 41.8965 127.583 42.0778C127.712 42.2454 127.855 42.3552 128.025 42.4807C128.414 42.7679 129.121 42.7512 129.511 42.4807C129.843 42.2513 130.15 41.9347 130.244 41.5221C130.286 41.3378 130.302 41.1388 130.31 40.9497C130.323 40.684 130.279 40.4184 130.207 40.1626Z" fill="#FFFBD1"/>
</g>
</g>
<g opacity="0.380005">
<g opacity="0.380005">
<path opacity="0.380005" d="M51.4996 51.1147C51.434 50.2384 50.2979 49.8522 49.8079 50.656C49.1609 51.7195 48.765 52.93 48.3837 54.1101C48.2023 54.6727 48.021 55.2344 47.8397 55.797C47.7485 56.0793 47.6505 56.3567 47.5927 56.6478C47.4848 57.182 47.5113 57.5897 47.6064 58.1259C47.7054 58.6806 48.2925 59.0923 48.8071 59.1609C49.4256 59.2442 49.8863 58.9492 50.247 58.4719C50.6763 57.9024 50.7919 57.2555 50.9027 56.5703C50.9968 55.9852 51.0919 55.3981 51.187 54.8109C51.383 53.5916 51.5918 52.3527 51.4996 51.1147Z" fill="#FFFBD1"/>
</g>
</g>
<g opacity="0.380005">
<g opacity="0.380005">
<path opacity="0.380005" d="M47.6843 51.3254C47.6549 51.2 47.5971 51.0912 47.5118 50.998C47.3883 50.8383 47.2129 50.6971 47.0109 50.652C46.5954 50.5579 46.1396 50.7128 45.921 51.0961C45.6573 51.5577 45.377 52.0145 45.128 52.4859C44.9124 52.8927 44.8105 53.3534 44.7654 53.8052C44.7389 54.0748 44.7242 54.3061 44.8359 54.5688C44.9722 54.8942 45.2241 55.1785 45.5779 55.2755C45.8798 55.3588 46.2396 55.2873 46.5022 55.1304C46.7806 54.9648 46.9286 54.7001 47.0903 54.4355C47.204 54.2463 47.2874 54.0454 47.3569 53.8376L47.4256 53.6308C47.4844 53.4563 47.4952 53.3406 47.5216 53.1338C47.5873 52.6163 47.653 52.0988 47.7186 51.5822C47.7069 51.4969 47.6961 51.4117 47.6843 51.3254Z" fill="#FFFBD1"/>
</g>
</g>
<g opacity="0.380005">
<g opacity="0.380005">
<path opacity="0.380005" d="M145.493 46.3882C145.274 45.9363 144.958 45.5276 144.699 45.0973C144.448 44.6797 144.216 44.2514 143.989 43.8211C143.534 42.9586 143.134 42.0519 142.613 41.2315C142.357 40.8287 141.832 40.565 141.354 40.7199C140.886 40.8708 140.536 41.2884 140.536 41.7941C140.536 42.8694 140.825 43.9897 141.186 45.0022C141.391 45.5737 141.632 46.1333 141.878 46.6881C142.086 47.1586 142.287 47.6673 142.595 48.0829C142.865 48.4456 143.145 48.7288 143.598 48.8543C144.001 48.9641 144.535 48.9141 144.892 48.6847C145.703 48.1613 145.906 47.2341 145.493 46.3882Z" fill="#FFFBD1"/>
</g>
</g>
<g opacity="0.380005">
<g opacity="0.380005">
<path opacity="0.380005" d="M147.575 43.1595C147.553 42.886 147.529 42.8292 147.437 42.6106C147.382 42.4803 147.328 42.3499 147.262 42.2254C147.175 42.0637 147.059 41.9225 146.942 41.7824C146.825 41.6402 146.693 41.5099 146.55 41.3952C146.342 41.2276 146.133 41.0668 145.897 40.9433C145.478 40.7238 144.976 40.8061 144.682 41.1854C144.559 41.3442 144.47 41.5501 144.48 41.7559C144.492 42.0147 144.582 42.2293 144.755 42.4224C144.761 42.4283 144.766 42.4352 144.772 42.442C144.881 42.593 144.971 42.7547 145.048 42.9243C145.087 43.0262 145.128 43.1281 145.161 43.2311C145.187 43.3124 145.205 43.3948 145.229 43.4771C145.279 43.6545 145.384 43.8152 145.457 43.9838C145.419 43.8927 145.381 43.8015 145.342 43.7104C145.429 43.9162 145.503 44.1338 145.677 44.2857C145.948 44.5259 146.246 44.6396 146.608 44.5915C146.943 44.5455 147.248 44.3641 147.418 44.0613C147.553 43.8211 147.594 43.5535 147.583 43.283C147.581 43.2418 147.579 43.2007 147.575 43.1595Z" fill="#FFFBD1"/>
</g>
</g>
<g opacity="0.380005">
<g opacity="0.380005">
<path opacity="0.380005" d="M154.24 42.9442C154.146 42.5737 153.932 42.3198 153.706 42.0297L153.958 42.3561C153.655 41.9631 153.367 41.5602 153.063 41.1681L153.313 41.4936C152.882 40.9339 152.486 40.3497 152.133 39.7381C151.961 39.4411 151.781 39.148 151.606 38.853C151.522 38.7128 151.44 38.5697 151.361 38.4266C151.321 38.3541 151.28 38.2855 151.235 38.2168C151.124 38.0287 150.975 37.8787 150.786 37.7679C150.694 37.6974 150.718 37.716 150.861 37.8248C150.536 37.5729 150.196 37.4229 149.776 37.5386C149.409 37.6395 149.09 37.9424 148.998 38.3168C148.951 38.5031 148.906 38.6952 148.909 38.8863C148.912 39.0921 148.965 39.3039 149.012 39.5048C149.066 39.7322 149.124 39.9567 149.188 40.1811C149.348 40.7516 149.605 41.2985 149.861 41.8327C150.07 42.2689 150.299 42.6952 150.546 43.1108C150.667 43.3128 150.802 43.5009 150.946 43.6891C151.22 44.0469 151.512 44.5164 151.929 44.7213C152.509 45.0065 153.149 45.0065 153.677 44.5978C154.18 44.2106 154.398 43.5656 154.24 42.9442Z" fill="#FFFBD1"/>
</g>
</g>
<g opacity="0.380005">
<g opacity="0.380005">
<path opacity="0.380005" d="M162.077 38.8321C162.03 38.7635 161.978 38.6968 161.929 38.6302C161.83 38.4969 161.73 38.3626 161.63 38.2303C161.363 37.8794 161.106 37.5186 160.813 37.1913C160.366 36.6894 159.907 36.2003 159.437 35.721C159.011 35.2878 158.309 35.2623 157.839 35.6259C157.395 35.969 157.172 36.7002 157.524 37.1972C157.912 37.7431 158.288 38.2969 158.649 38.8605C158.829 39.1389 159.029 39.4035 159.218 39.676C159.313 39.8122 159.405 39.9495 159.498 40.0867C159.545 40.1563 159.59 40.2259 159.637 40.2935C159.752 40.4582 159.863 40.5964 160.02 40.7189C160.186 40.8473 160.357 40.913 160.55 40.9924C160.946 41.1551 161.446 40.9875 161.762 40.7434C162.097 40.4846 162.323 40.0877 162.309 39.6525C162.3 39.3663 162.238 39.0703 162.077 38.8321Z" fill="#FFFBD1"/>
</g>
</g>
<g opacity="0.380005">
<g opacity="0.380005">
<path opacity="0.380005" d="M164.301 36.1491C164.129 35.9021 163.957 35.6541 163.788 35.4071C163.56 35.0778 163.313 34.7651 163.063 34.4524C162.969 34.3329 162.876 34.2113 162.778 34.0957C162.626 33.9173 162.419 33.7947 162.225 33.6634C162.066 33.5556 161.817 33.5027 161.628 33.5027C161.364 33.5027 161.117 33.5968 160.911 33.7565C160.744 33.8849 160.629 34.0349 160.547 34.229C160.436 34.4936 160.443 34.7161 160.487 34.9994C160.498 35.0729 160.506 35.1484 160.521 35.2209C160.554 35.3885 160.632 35.5404 160.705 35.6943C160.772 35.8355 160.843 35.9737 160.91 36.1138C161.043 36.3844 161.18 36.649 161.332 36.9097C161.481 37.1695 161.631 37.4302 161.782 37.689C161.858 37.8232 161.935 37.9575 162.013 38.0908C162.109 38.2575 162.192 38.4015 162.335 38.5466C162.559 38.774 162.786 38.8661 163.075 38.9808C163.494 39.1455 164.007 38.9789 164.341 38.7211C164.717 38.43 164.88 38.0506 164.912 37.5811C164.951 37.0117 164.602 36.5843 164.301 36.1491Z" fill="#FFFBD1"/>
</g>
</g>
</svg>
